<svg xmlns="http://www.w3.org/2000/svg" viewBox="0 0 194 200" width="194" height="200">
	<style>
		tspan { white-space:pre }
		.shp0 { fill: #1f2e6f } 
		.shp1 { fill: #ffffff } 
		.shp2 { fill: #c7953e } 
	</style>
	<g >
		<path class="shp0" d="M94.92 0.68C93.96 0.94 92.61 1.31 91.92 1.49C91.23 1.68 89.92 2.07 89.01 2.35C88.09 2.63 86.48 3.12 85.43 3.44C84.37 3.76 82.76 4.27 81.85 4.58C80.93 4.9 79.66 5.3 79.02 5.49C78.37 5.67 76.39 6.35 74.6 7C72.82 7.66 71.17 8.23 70.94 8.27C70.71 8.32 70.37 8.42 70.19 8.5C70.01 8.58 69.37 8.84 68.77 9.07C68.18 9.3 67.58 9.5 67.43 9.5C67.29 9.5 67.1 9.56 67.02 9.64C66.93 9.72 66.07 10.09 65.11 10.46C64.15 10.84 62.46 11.49 61.36 11.91C60.26 12.34 59.03 12.84 58.62 13.03C58.2 13.22 57.42 13.54 56.87 13.75C56.32 13.96 55.04 14.48 54.04 14.91C53.03 15.34 51.72 15.91 51.12 16.16C50.53 16.42 48.54 17.3 46.71 18.12C44.88 18.94 41.43 20.57 39.05 21.73C36.67 22.9 34.23 24.1 33.64 24.4C33.04 24.71 31.62 25.45 30.47 26.04C29.33 26.64 27.23 27.76 25.81 28.53C24.39 29.3 22.63 30.22 21.9 30.57C21.17 30.91 20.04 31.37 19.4 31.59C18.76 31.8 17.56 32.13 16.74 32.31C15.91 32.49 14.41 32.73 13.41 32.84C12.29 32.97 10.98 33.01 10.07 32.94C9.25 32.87 8.16 32.78 7.66 32.73C7.16 32.68 5.84 32.43 4.75 32.18C3.65 31.92 2.26 31.51 1.67 31.27C0.79 30.92 0.54 30.87 0.36 31.04C0.19 31.21 0.18 31.4 0.34 32C0.45 32.41 0.83 33.72 1.2 34.92C1.57 36.11 1.93 37.23 2 37.42C2.07 37.6 2.4 38.61 2.73 39.67C3.06 40.72 3.74 42.86 4.23 44.42C4.72 45.98 5.27 47.74 5.46 48.33C5.65 48.93 6 50.17 6.25 51.08C6.5 52 6.73 52.9 6.78 53.08C6.82 53.27 6.92 53.57 6.99 53.75C7.06 53.93 7.21 54.38 7.33 54.75C7.44 55.12 7.54 55.57 7.56 55.75C7.58 55.93 7.65 56.2 7.7 56.33C7.76 56.47 8 57.22 8.25 58C8.5 58.78 8.73 59.57 8.76 59.75C8.78 59.93 8.87 60.35 8.96 60.67C9.04 60.99 9.35 62.07 9.66 63.08C9.96 64.09 10.38 65.5 10.6 66.21C10.81 66.92 10.99 67.69 10.99 67.92C10.99 68.15 11.06 68.46 11.15 68.63C11.24 68.79 11.51 69.59 11.75 70.42C11.99 71.24 12.37 72.5 12.59 73.21C12.81 73.92 12.99 74.69 12.99 74.92C12.99 75.15 13.05 75.36 13.11 75.4C13.18 75.43 13.34 75.79 13.46 76.19C13.57 76.59 13.69 77.1 13.72 77.33C13.74 77.56 13.81 77.86 13.86 78C13.92 78.14 14.08 78.63 14.22 79.08C14.36 79.54 14.74 80.85 15.06 82C15.39 83.15 15.83 84.68 16.05 85.42C16.27 86.15 16.62 87.31 16.82 88C17.03 88.69 17.21 89.36 17.23 89.5C17.24 89.64 17.35 90.09 17.48 90.5C17.6 90.91 17.91 91.92 18.16 92.75C18.42 93.58 18.67 94.51 18.73 94.83C18.8 95.15 18.98 95.83 19.16 96.33C19.33 96.84 19.62 97.81 19.8 98.5C19.98 99.19 20.42 100.76 20.79 102C21.15 103.24 21.48 104.44 21.53 104.67C21.57 104.9 21.82 105.72 22.06 106.5C22.31 107.28 22.58 108.18 22.65 108.5C22.73 108.82 22.94 109.61 23.13 110.25C23.31 110.89 23.76 112.5 24.13 113.83C24.5 115.16 24.93 116.66 25.08 117.17C25.23 117.67 25.42 118.31 25.5 118.58C25.58 118.86 25.9 119.95 26.23 121C26.55 122.05 26.81 123.09 26.81 123.29C26.81 123.5 26.75 123.66 26.69 123.66C26.62 123.66 26.32 123.47 26.02 123.25C25.72 123.02 25.4 122.83 25.31 122.83C25.22 122.83 23.93 122.02 22.44 121.02C20.95 120.02 19.51 119 19.23 118.76C18.96 118.51 18.47 118.14 18.15 117.93C17.83 117.72 17.42 117.38 17.24 117.18C17.05 116.98 16.73 116.82 16.53 116.83C16.32 116.83 16.13 116.93 16.1 117.04C16.07 117.16 16.15 117.63 16.28 118.08C16.4 118.54 16.72 119.63 16.98 120.5C17.25 121.37 17.58 122.5 17.73 123C17.88 123.5 18.02 124.03 18.05 124.17C18.08 124.3 18.19 124.64 18.3 124.92C18.42 125.19 18.61 125.83 18.73 126.33C18.85 126.84 19.34 128.52 19.82 130.08C20.3 131.64 20.79 133.25 20.9 133.67C21.02 134.08 21.35 135.24 21.64 136.25C21.92 137.26 22.26 138.42 22.4 138.83C22.53 139.25 22.91 140.48 23.24 141.58C23.57 142.68 23.91 143.81 23.99 144.08C24.08 144.36 24.3 145.15 24.48 145.83C24.67 146.52 25.02 147.72 25.25 148.5C25.48 149.28 25.92 150.7 26.22 151.67C26.52 152.63 26.87 153.79 26.98 154.25C27.1 154.71 27.44 155.83 27.73 156.75C28.03 157.67 28.32 158.68 28.38 159C28.45 159.32 28.62 159.75 28.78 159.94C28.93 160.14 30.88 161.21 33.1 162.32L37.13 164.33C37.5 165.69 37.91 167.36 38.28 168.92L38.97 171.75C41.74 173.85 43.03 174.77 43.63 175.14C44.22 175.51 45.5 176.29 46.46 176.87C47.42 177.44 48.47 178.05 48.79 178.21C49.11 178.38 50.16 178.95 51.12 179.49C52.08 180.02 55.04 181.55 57.7 182.88C60.36 184.22 63.92 185.97 65.61 186.76C67.3 187.55 69.33 188.49 70.11 188.84C70.88 189.18 72.46 189.88 73.6 190.38C74.75 190.89 76.1 191.49 76.6 191.71C77.1 191.94 78.32 192.47 79.31 192.9C80.29 193.32 81.15 193.67 81.22 193.67C81.29 193.67 81.95 193.94 82.68 194.27C83.41 194.6 84.5 195.08 85.09 195.34C85.69 195.6 87.94 196.52 90.09 197.39C92.24 198.26 94.6 199.2 95.33 199.49C96.07 199.77 96.87 200.01 97.12 200C97.38 200 98.2 199.77 98.96 199.48C99.71 199.19 100.56 198.86 100.83 198.74C101.1 198.62 102.15 198.19 103.16 197.78C104.17 197.37 105.37 196.88 105.83 196.69C106.28 196.51 107.18 196.15 107.82 195.91C108.47 195.66 109.63 195.16 110.41 194.8C111.18 194.43 112.27 193.96 112.82 193.75C113.37 193.54 115.06 192.83 116.57 192.17C118.08 191.51 119.99 190.67 120.81 190.3C121.64 189.93 122.76 189.42 123.31 189.16C123.86 188.91 125.1 188.35 126.06 187.91C127.02 187.48 128.59 186.75 129.56 186.3C130.52 185.84 133.48 184.38 136.13 183.06C138.79 181.73 141.62 180.29 142.41 179.86C143.21 179.43 144.34 178.83 144.91 178.52C145.49 178.21 146.03 177.9 146.12 177.82C146.22 177.75 146.67 177.49 147.12 177.24C147.58 177 148.52 176.43 149.21 175.98C149.89 175.54 151.32 174.57 152.37 173.85C153.42 173.12 154.49 172.33 154.74 172.09C155.03 171.83 155.3 171.31 155.46 170.71C155.6 170.18 155.78 169.49 155.86 169.17C155.94 168.85 156.1 168.13 156.21 167.58C156.32 167.03 156.54 166.1 156.68 165.5L156.95 164.42C163.02 161.4 164.99 160.32 165.24 160.06C165.5 159.8 165.78 159.28 165.87 158.92C165.96 158.55 166.29 157.42 166.6 156.42C166.9 155.41 167.28 154.13 167.44 153.58C167.6 153.03 167.94 151.91 168.2 151.08C168.45 150.26 168.97 148.53 169.34 147.25C169.72 145.97 170.63 142.89 171.36 140.42C172.1 137.94 172.88 135.28 173.1 134.5C173.31 133.72 173.72 132.37 174.01 131.5C174.29 130.63 174.52 129.75 174.52 129.54C174.52 129.34 174.66 128.77 174.84 128.29C175.02 127.81 175.25 127.04 175.36 126.58C175.46 126.13 175.84 124.81 176.18 123.67C176.53 122.52 177.05 120.8 177.35 119.83C177.64 118.87 177.89 117.88 177.9 117.63C177.92 117.37 178.01 117.16 178.1 117.16C178.19 117.16 178.11 117.08 177.93 116.98C177.65 116.83 177.45 116.91 176.76 117.41C176.31 117.75 175.51 118.34 175 118.72C174.49 119.1 173.61 119.75 173.05 120.17C172.49 120.58 171.31 121.37 170.43 121.92C169.55 122.47 168.58 123.09 168.26 123.29C167.95 123.5 167.58 123.67 167.44 123.67C167.29 123.67 167.24 123.58 167.3 123.46C167.37 123.34 167.44 123.01 167.47 122.71C167.5 122.41 167.59 122.04 167.67 121.88C167.75 121.71 168.17 120.35 168.61 118.83C169.04 117.32 169.6 115.3 169.86 114.33C170.12 113.37 170.56 111.8 170.84 110.83C171.13 109.87 171.55 108.41 171.78 107.58C172.01 106.76 172.38 105.48 172.6 104.75C172.82 104.02 173.25 102.52 173.57 101.42C173.89 100.32 174.24 99 174.35 98.5C174.46 98 174.72 96.98 174.93 96.25C175.14 95.52 175.49 94.24 175.69 93.42C175.9 92.59 176.12 91.84 176.19 91.75C176.26 91.66 176.48 90.91 176.68 90.08C176.89 89.26 177.13 88.4 177.22 88.17C177.3 87.94 177.4 87.64 177.43 87.5C177.46 87.36 177.72 86.42 178.01 85.42C178.29 84.41 178.6 83.36 178.68 83.08C178.76 82.81 178.98 81.98 179.17 81.25C179.37 80.52 179.59 79.77 179.68 79.58C179.77 79.4 179.99 78.61 180.19 77.83C180.38 77.05 180.67 75.97 180.84 75.42C181.01 74.87 181.35 73.67 181.6 72.75C181.85 71.83 182.16 70.78 182.29 70.42C182.42 70.05 182.75 68.92 183.02 67.92C183.29 66.91 183.73 65.3 183.99 64.33C184.25 63.37 184.66 61.98 184.9 61.25C185.15 60.52 185.34 59.8 185.34 59.67C185.34 59.53 185.59 58.59 185.9 57.58C186.21 56.57 186.82 54.51 187.25 53C187.68 51.49 188.3 49.39 188.62 48.33C188.93 47.28 189.37 45.89 189.58 45.25C189.79 44.61 190.2 43.3 190.5 42.33C190.8 41.37 191.37 39.57 191.76 38.33C192.15 37.1 192.74 35.26 193.06 34.25C193.38 33.24 193.7 32.12 193.76 31.75C193.84 31.26 193.81 31.05 193.65 30.97C193.52 30.91 192.97 31.04 192.42 31.27C191.87 31.49 190.82 31.81 190.09 31.99C189.35 32.16 188.38 32.38 187.92 32.48C187.46 32.58 186.75 32.7 186.34 32.75C185.93 32.8 184.84 32.89 183.93 32.94C182.96 33 181.53 32.96 180.51 32.84C179.55 32.73 177.94 32.44 176.93 32.21C175.92 31.98 174.28 31.43 173.27 31C172.26 30.57 170.27 29.59 168.85 28.83C167.44 28.08 166.2 27.4 166.11 27.32C166.02 27.25 165.12 26.76 164.11 26.24C163.1 25.72 161.57 24.94 160.7 24.5C159.83 24.06 157.35 22.84 155.2 21.79C153.05 20.74 150.8 19.65 150.2 19.38C149.61 19.1 148.63 18.67 148.04 18.42C147.44 18.17 146.69 17.83 146.37 17.67C146.05 17.51 145.27 17.13 144.63 16.83C143.98 16.53 142.45 15.88 141.21 15.37C139.98 14.87 138.85 14.39 138.71 14.31C138.58 14.23 137.98 13.98 137.38 13.76C136.79 13.54 135.36 12.97 134.22 12.5C133.07 12.02 131.69 11.47 131.14 11.26C130.59 11.06 128.64 10.32 126.81 9.63C124.98 8.93 122.84 8.13 122.06 7.84C121.28 7.55 118.66 6.65 116.23 5.84C113.81 5.04 110.7 4.03 109.32 3.61C107.95 3.19 105.66 2.5 104.24 2.08C102.82 1.66 101.18 1.18 100.58 1C99.98 0.83 99.03 0.57 98.46 0.43C97.88 0.28 97.25 0.18 97.04 0.19C96.84 0.2 95.88 0.42 94.92 0.68Z" />
		<path class="shp1" d="M95.75 11.19C95.34 11.28 93.65 11.69 92 12.1C90.36 12.51 88.03 13.11 86.84 13.43C85.65 13.75 83.4 14.36 81.85 14.78C80.29 15.2 78.47 15.72 77.81 15.94C77.14 16.16 76.51 16.33 76.39 16.33C76.28 16.34 74.84 16.76 73.19 17.28C71.54 17.8 68.32 18.84 66.03 19.6C63.74 20.36 61 21.28 59.95 21.64C58.9 22.01 57.32 22.59 56.45 22.92C55.58 23.26 54.46 23.66 53.95 23.83C53.45 23.99 51.58 24.7 49.79 25.41C48 26.11 46.17 26.84 45.71 27.03C45.25 27.22 44.43 27.56 43.88 27.79C43.33 28.02 42.34 28.46 41.67 28.77C41.01 29.08 40.41 29.33 40.34 29.33C40.27 29.33 39.24 29.77 38.05 30.3C36.86 30.84 35.4 31.5 34.8 31.79C34.21 32.07 32.93 32.68 31.97 33.13C31.01 33.59 29.44 34.34 28.48 34.81C27.51 35.27 25.3 36.39 23.56 37.3C21.82 38.21 19.87 39.12 19.23 39.32C18.59 39.52 17.43 39.81 16.65 39.96C15.68 40.14 14.28 40.23 12.2 40.24C9.27 40.25 9.16 40.26 9.16 40.58C9.16 40.77 9.39 41.78 9.68 42.83C9.96 43.89 10.4 45.57 10.66 46.58C10.92 47.59 11.28 49.02 11.46 49.75C11.64 50.48 12.1 52.25 12.47 53.67C12.85 55.09 13.34 56.96 13.56 57.83C13.79 58.7 14.24 60.43 14.56 61.67C14.88 62.9 15.41 64.97 15.75 66.25C16.09 67.53 16.46 69 16.58 69.5C16.69 70 17.06 71.47 17.4 72.75C17.74 74.03 18.12 75.46 18.25 75.92C18.38 76.38 18.6 77.24 18.74 77.83C18.89 78.43 19.27 79.93 19.59 81.17C19.91 82.4 20.33 84.02 20.51 84.75C20.7 85.48 20.95 86.42 21.07 86.83C21.19 87.25 21.48 88.41 21.72 89.42C21.95 90.42 22.34 91.96 22.58 92.83C22.81 93.7 23.41 95.99 23.9 97.92C24.39 99.84 25.09 102.58 25.47 104C25.84 105.42 26.3 107.15 26.49 107.83C26.68 108.52 26.98 109.68 27.14 110.42C27.31 111.15 27.61 112.35 27.81 113.08C28.01 113.82 28.4 115.28 28.68 116.33C28.96 117.39 29.28 118.66 29.39 119.17C29.51 119.67 29.93 121.36 30.34 122.92C30.75 124.47 31.15 125.88 31.24 126.05C31.32 126.21 31.95 126.65 32.64 127.02C33.33 127.4 34.52 127.99 35.3 128.33C36.08 128.68 37.58 129.35 38.63 129.83C39.69 130.31 41.11 130.91 41.8 131.17C42.48 131.43 44.17 132.05 45.54 132.55C46.92 133.05 49.13 133.8 50.46 134.23C51.78 134.65 53.62 135.21 54.54 135.48C55.45 135.75 57.29 136.24 58.62 136.56C59.94 136.89 62.38 137.45 64.03 137.81C65.68 138.17 67.51 138.54 68.11 138.65C68.7 138.75 70.35 139.02 71.77 139.24C73.19 139.46 74.73 139.69 75.19 139.74C75.64 139.8 76.58 139.92 77.27 140.01C77.95 140.1 79.49 140.28 80.68 140.41C81.87 140.54 84.31 140.75 86.09 140.87C88.02 141 92.52 141.08 97.17 141.08C101.72 141.08 106.35 140.99 108.24 140.87C110.03 140.75 112.09 140.59 112.82 140.5C113.55 140.42 114.9 140.26 115.82 140.16C116.73 140.05 118.19 139.86 119.06 139.73C119.93 139.6 121.88 139.3 123.39 139.08C124.91 138.85 126.85 138.52 127.72 138.34C128.59 138.16 130.17 137.83 131.22 137.6C132.27 137.37 134.18 136.92 135.47 136.61C136.75 136.3 138.62 135.8 139.63 135.51C140.64 135.21 142.85 134.53 144.54 133.98C146.24 133.43 148.45 132.68 149.45 132.3C150.46 131.93 151.51 131.53 151.79 131.41C152.06 131.3 152.55 131.11 152.87 131C153.19 130.88 153.99 130.53 154.66 130.23C155.32 129.92 155.92 129.67 155.99 129.66C156.06 129.66 156.49 129.48 156.95 129.26C157.41 129.04 158.79 128.38 160.03 127.79C161.27 127.2 162.45 126.58 162.65 126.4C162.95 126.15 163.24 125.27 164.03 122.17C164.58 120.01 165.18 117.69 165.36 117C165.53 116.31 166.01 114.47 166.42 112.92C166.82 111.36 167.54 108.58 168.01 106.75C168.48 104.92 169.1 102.55 169.39 101.5C169.67 100.45 169.96 99.32 170.02 99C170.09 98.68 170.42 97.37 170.76 96.08C171.1 94.8 171.53 93.19 171.71 92.5C171.89 91.81 172.19 90.65 172.37 89.92C172.55 89.18 173.01 87.42 173.38 86C173.76 84.58 174.16 82.93 174.27 82.33C174.38 81.74 174.82 79.94 175.23 78.33C175.65 76.73 176.27 74.37 176.61 73.08C176.95 71.8 177.32 70.34 177.44 69.83C177.55 69.33 177.95 67.75 178.33 66.33C178.71 64.91 179.24 62.89 179.51 61.83C179.78 60.78 180.5 58 181.11 55.67C181.71 53.33 182.42 50.59 182.68 49.58C182.94 48.57 183.54 46.25 184.02 44.42C184.5 42.58 184.9 40.9 184.91 40.67L184.92 40.25C179.86 40.23 178.46 40.14 177.43 39.94C176.61 39.79 175.45 39.5 174.85 39.31C174.25 39.11 172.08 38.07 170.02 37C167.96 35.93 164.89 34.39 163.19 33.59C161.5 32.79 159.59 31.89 158.95 31.59C158.31 31.28 156.83 30.62 155.66 30.1C154.49 29.59 153.5 29.17 153.45 29.17C153.41 29.17 152.9 28.95 152.33 28.68C151.76 28.42 150.57 27.9 149.7 27.53C148.83 27.16 147.82 26.75 147.46 26.62C147.09 26.48 146.08 26.09 145.21 25.75C144.34 25.41 142.99 24.89 142.21 24.58C141.43 24.28 139.52 23.56 137.96 22.99C136.41 22.41 134.83 21.85 134.47 21.73C134.1 21.61 132.49 21.06 130.89 20.5C129.28 19.94 127.6 19.37 127.14 19.23C126.68 19.09 124.7 18.46 122.73 17.83C120.76 17.2 118.32 16.45 117.32 16.16C116.31 15.88 114.85 15.46 114.07 15.24C113.29 15.02 111.08 14.42 109.16 13.91C107.23 13.39 104.31 12.63 102.66 12.22C101.01 11.81 99.16 11.37 98.54 11.24C97.92 11.11 97.21 11.01 96.96 11.02C96.71 11.03 96.16 11.11 95.75 11.19Z" />
		<path class="shp0" d="M93.99 19.46C94.05 19.8 94.29 20.65 94.52 21.33C94.75 22.02 95.28 23.33 95.7 24.25C96.13 25.17 96.85 26.59 97.31 27.42C97.77 28.24 98.55 29.52 99.05 30.25C99.54 30.98 100.3 32.03 100.74 32.58C101.17 33.13 102.11 34.22 102.82 35C103.54 35.78 104.8 37.04 105.64 37.81C106.47 38.58 107.87 39.74 108.74 40.39C109.61 41.04 110.55 41.73 110.82 41.92C111.1 42.1 112.15 42.75 113.15 43.35C114.16 43.95 115.77 44.82 116.73 45.29C117.69 45.76 118.93 46.34 119.48 46.59C120.03 46.83 121.08 47.24 121.81 47.5C122.54 47.75 123.59 48.11 124.14 48.3C124.69 48.49 126.27 48.95 127.64 49.32C129.01 49.69 130.85 50.11 131.72 50.24C132.59 50.38 133.75 50.57 134.3 50.66C134.85 50.76 136.09 50.95 137.05 51.09C138.01 51.23 140 51.45 141.46 51.59C142.93 51.72 145.81 51.88 147.87 51.93C149.93 51.99 151.72 52.08 151.84 52.14C152.01 52.23 152.02 52.61 151.88 54.08C151.78 55.09 151.55 56.82 151.37 57.92C151.2 59.02 150.97 60.44 150.88 61.08C150.78 61.73 150.4 64.27 150.03 66.75C149.65 69.22 149.17 72.56 148.96 74.17C148.74 75.77 148.29 78.88 147.96 81.08C147.62 83.28 147.28 85.53 147.2 86.08C147.12 86.63 146.95 87.83 146.81 88.75C146.67 89.67 146.44 91.28 146.3 92.33C146.16 93.39 145.97 94.7 145.88 95.25C145.79 95.8 145.53 97.52 145.3 99.08C145.06 100.64 144.79 102.48 144.69 103.17C144.6 103.85 144.45 104.79 144.37 105.25C144.29 105.71 144.18 106.57 144.12 107.17C144.05 107.89 143.76 108.86 143.24 110.08C142.82 111.09 141.78 113.3 140.94 115C140.09 116.7 139.06 118.68 138.66 119.42C138.26 120.15 137.31 121.8 136.55 123.08C135.8 124.37 134.85 125.89 134.45 126.46C134.05 127.03 133.72 127.54 133.72 127.58C133.72 127.63 132.88 128.86 131.85 130.33C130.81 131.79 129.73 133.35 129.42 133.79C129.12 134.22 128.88 134.64 128.88 134.71C128.89 134.78 129 134.87 129.14 134.92C129.28 134.96 130.12 134.81 131.01 134.57C131.91 134.33 133.46 133.92 134.47 133.66C135.48 133.4 136.79 133.04 137.38 132.86C137.98 132.68 139.06 132.34 139.8 132.11C140.53 131.87 141.3 131.56 141.5 131.42C141.71 131.28 142.35 130.44 142.93 129.54C143.52 128.65 144.24 127.47 144.54 126.92C144.85 126.37 145.19 125.8 145.3 125.67C145.41 125.53 146.21 124.14 147.07 122.58C147.94 121.02 149.37 118.23 150.26 116.38C151.14 114.52 151.87 112.94 151.87 112.88C151.87 112.81 152.12 112.15 152.42 111.42C152.77 110.59 153.06 109.51 153.18 108.58C153.3 107.76 153.64 105.4 153.95 103.33C154.26 101.27 154.67 98.42 154.88 97C155.08 95.58 155.3 94 155.37 93.5C155.44 93 155.77 90.75 156.11 88.5C156.44 86.25 156.78 83.89 156.86 83.25C156.95 82.61 157.13 81.37 157.27 80.5C157.41 79.63 157.6 78.35 157.69 77.67C157.78 76.98 158.05 75.22 158.28 73.75C158.52 72.28 158.97 69.21 159.28 66.92C159.6 64.63 159.96 62.07 160.1 61.25C160.23 60.42 160.42 59.11 160.53 58.33C160.64 57.55 160.82 56.28 160.95 55.5C161.07 54.72 161.32 53.03 161.51 51.75C161.7 50.47 161.97 48.67 162.11 47.75C162.25 46.83 162.36 45.91 162.36 45.71C162.36 45.5 162.23 45.26 162.07 45.18C161.88 45.08 161.14 45.12 160.03 45.28C158.89 45.44 156.32 45.56 152.62 45.62C148.97 45.68 146.07 45.64 144.46 45.51C143.09 45.4 140.65 45.17 139.05 44.99C137.44 44.81 135.72 44.6 135.22 44.51C134.71 44.43 133.33 44.16 132.14 43.91C130.95 43.67 128.96 43.21 127.72 42.89C126.49 42.58 124.65 42.05 123.64 41.72C122.64 41.39 120.76 40.72 119.48 40.22C118.2 39.72 115.95 38.71 114.48 37.97C113.02 37.23 110.88 36.02 109.74 35.28C108.59 34.55 107.4 33.75 107.07 33.52C106.75 33.28 106.08 32.75 105.58 32.34C105.07 31.93 103.96 30.95 103.09 30.17C102.23 29.39 100.76 27.89 99.83 26.83C98.89 25.78 97.25 23.62 96.19 22.04C95.12 20.46 94.25 19.09 94.25 19C94.25 18.91 94.17 18.83 94.06 18.83C93.94 18.83 93.91 19.04 93.99 19.46Z" />
		<path class="shp2" d="M98.17 19.83C98.12 19.92 98.41 20.62 98.81 21.38C99.21 22.13 99.77 23.09 100.06 23.5C100.35 23.91 100.9 24.72 101.29 25.29C101.68 25.87 102.05 26.34 102.12 26.34C102.19 26.33 102.48 26.69 102.77 27.13C103.06 27.56 104.13 28.77 105.15 29.81C106.16 30.85 107.7 32.28 108.57 32.99C109.44 33.7 110.66 34.61 111.27 35.02C111.88 35.42 112.74 35.97 113.17 36.25C113.61 36.52 114.1 36.81 114.27 36.88C114.44 36.95 114.55 36.93 114.53 36.84C114.5 36.75 113.88 36.06 113.15 35.3C112.41 34.54 111.21 33.17 110.46 32.25C109.72 31.33 108.7 29.98 108.2 29.25C107.7 28.52 107.05 27.5 106.77 27C106.48 26.5 105.8 25.24 105.25 24.21L104.24 22.33C101.02 20.78 99.99 20.34 99.87 20.34C99.76 20.34 99.46 20.19 99.21 20.01C98.95 19.82 98.64 19.67 98.51 19.67C98.37 19.67 98.22 19.74 98.17 19.83ZM0 31.25C0 31.57 0.07 31.83 0.17 31.83C0.26 31.83 0.28 31.72 0.21 31.58C0.13 31.43 0.2 31.2 0.38 31C0.67 30.68 0.67 30.67 0.34 30.67C0.06 30.67 0 30.77 0 31.25Z" />
		<path class="shp0" d="M80.09 37.51C79.41 37.88 78.17 38.5 77.35 38.9C76.53 39.3 74.99 39.98 73.94 40.42C72.88 40.85 71.05 41.52 69.86 41.92C68.67 42.31 67.17 42.79 66.53 42.98C65.89 43.17 64.46 43.59 63.36 43.9C62.26 44.21 60.76 44.59 60.03 44.74C59.3 44.89 58.06 45.17 57.28 45.35C56.51 45.53 55.57 45.75 55.2 45.83C54.84 45.91 53.9 46.1 53.12 46.24C52.34 46.38 50.77 46.64 49.62 46.82C48.48 47 46.83 47.23 45.96 47.32C45.09 47.42 42.69 47.58 40.63 47.66C38.26 47.76 35.54 47.76 33.22 47.65C31.21 47.57 29.52 47.54 29.47 47.59C29.43 47.65 29.69 49.69 30.05 52.14C30.41 54.58 30.73 56.92 30.77 57.33C30.8 57.75 30.77 58.14 30.69 58.22C30.62 58.29 29.96 58.27 29.22 58.18C28.49 58.09 27.14 57.93 26.23 57.83C25.31 57.73 24.37 57.62 24.15 57.59C23.92 57.55 23.62 57.58 23.48 57.66C23.27 57.78 23.31 57.93 23.75 58.61C24.04 59.05 24.79 60.39 25.42 61.58C26.06 62.77 26.66 63.94 26.76 64.17C26.87 64.4 27.01 64.77 27.08 65C27.14 65.23 27.44 65.94 27.74 66.58C28.04 67.22 28.48 68.27 28.73 68.92C28.97 69.56 29.22 70.31 29.3 70.58C29.37 70.86 29.56 71.38 29.72 71.75C30 72.41 30.01 72.41 30.17 72C30.26 71.77 30.29 70.99 30.23 70.25C30.18 69.52 30.09 68.5 30.04 68C29.96 67.32 30 67.02 30.18 66.83C30.39 66.62 30.69 66.61 32.49 66.79C33.62 66.9 35.15 67.07 35.89 67.17C36.62 67.28 37.63 67.43 38.13 67.51C38.64 67.59 40.14 67.85 41.46 68.09C42.79 68.33 45.15 68.82 46.71 69.19C48.27 69.55 50.51 70.16 51.71 70.53C52.9 70.9 54.43 71.4 55.12 71.63C55.81 71.87 57.01 72.31 57.78 72.63C58.56 72.94 59.54 73.33 59.95 73.49C60.36 73.66 61.48 74.17 62.45 74.64C63.41 75.11 64.49 75.65 64.86 75.86C65.23 76.06 66.05 76.53 66.69 76.89C67.33 77.25 68.5 77.97 69.27 78.47C70.05 78.98 71.14 79.74 71.69 80.16C72.24 80.57 73.36 81.49 74.19 82.19C75.01 82.89 76.14 83.94 76.7 84.52C77.25 85.11 78.42 86.48 79.29 87.58C80.17 88.68 81.52 90.56 82.31 91.75C83.09 92.94 83.89 94.27 84.08 94.71L84.43 95.5C83.46 94.94 83.07 94.69 82.93 94.59C82.79 94.48 82.23 94.13 81.68 93.81C81.13 93.48 80.16 92.95 79.52 92.62C78.87 92.3 77.9 91.82 77.35 91.58C76.8 91.33 75.41 90.79 74.27 90.39C73.12 89.98 71.51 89.46 70.69 89.24C69.86 89.01 68.44 88.65 67.53 88.42C66.61 88.19 65.22 87.89 64.44 87.75C63.67 87.61 62.17 87.34 61.11 87.15C60.06 86.97 57.25 86.62 54.87 86.39C51.28 86.04 49.4 85.96 43.84 85.9C37.66 85.84 37.12 85.81 36.99 85.54C36.9 85.38 36.78 84.8 36.72 84.25C36.66 83.7 36.46 82.24 36.28 81C36.1 79.76 35.88 78.3 35.81 77.75C35.73 77.2 35.58 76.34 35.48 75.83C35.38 75.33 35.3 74.67 35.3 74.38C35.3 74.01 35.4 73.8 35.59 73.73C35.75 73.68 37.61 73.59 39.72 73.54C42.08 73.49 44.5 73.53 46.04 73.66C47.42 73.77 49.23 73.97 50.08 74.1C50.93 74.23 52.28 74.37 53.08 74.41C53.88 74.45 54.42 74.45 54.29 74.4C54.15 74.35 53.74 74.17 53.37 74C53 73.83 51.73 73.5 50.54 73.27C49.35 73.04 47.85 72.77 47.21 72.67C46.57 72.57 44.47 72.38 42.55 72.25C40.62 72.11 37.8 72 36.27 72C34.15 72 33.44 72.05 33.27 72.23C33.09 72.41 33.09 72.7 33.26 73.85C33.38 74.62 33.59 76.07 33.72 77.08C33.86 78.09 34.05 79.37 34.14 79.92C34.23 80.47 34.42 81.67 34.55 82.58C34.68 83.5 34.81 84.56 34.84 84.95C34.86 85.33 34.85 85.68 34.8 85.73C34.76 85.78 32.95 85.92 30.78 86.04C28.27 86.17 26.75 86.32 26.61 86.45C26.44 86.61 26.49 86.78 26.91 87.36C27.19 87.76 27.92 88.83 28.53 89.75C29.14 90.67 29.75 91.57 29.87 91.75C29.99 91.93 30.5 92.76 30.99 93.58C31.49 94.41 32.49 96.27 33.22 97.72L34.55 100.36C34.64 99.24 34.5 97.98 34.31 96.83C34.11 95.69 33.88 94.36 33.79 93.88C33.71 93.39 33.67 92.91 33.72 92.79C33.76 92.68 33.97 92.53 34.17 92.46C34.38 92.4 35.87 92.15 37.47 91.92C39.07 91.68 41.24 91.38 42.3 91.25C43.35 91.12 45.71 90.9 47.54 90.76C49.37 90.62 52.78 90.5 55.12 90.5C57.61 90.5 60.47 90.6 62.03 90.75C63.5 90.89 65.41 91.11 66.28 91.25C67.15 91.38 68.76 91.68 69.86 91.9C70.96 92.13 72.49 92.51 73.27 92.75C74.05 92.99 75.51 93.5 76.52 93.88C77.53 94.26 79.02 94.95 79.85 95.41C80.67 95.86 81.95 96.66 82.68 97.19C83.41 97.71 84.54 98.65 85.18 99.28C85.83 99.9 86.67 100.85 87.06 101.38C87.44 101.9 87.89 102.33 88.05 102.34C88.31 102.34 88.33 102.22 88.21 101.21C88.13 100.59 87.92 99.52 87.74 98.83C87.56 98.15 87.18 96.83 86.9 95.92C86.62 95 85.81 93.09 85.11 91.67C84.4 90.25 83.15 88.08 82.33 86.85C81.52 85.62 80.19 83.82 79.38 82.85C78.57 81.88 77.18 80.34 76.3 79.44C75.41 78.54 73.75 77 72.6 76.03C71.46 75.06 70.04 73.92 69.46 73.51C68.87 73.09 67.9 72.41 67.29 71.99C66.69 71.57 65.78 70.99 65.28 70.69C64.77 70.39 63.99 69.92 63.53 69.63C63.07 69.35 61.2 68.36 59.37 67.43C57.53 66.51 55.51 65.53 54.87 65.26C54.23 64.99 53.03 64.5 52.21 64.16C51.38 63.82 49.32 63.08 47.63 62.51C45.93 61.94 43.38 61.17 41.96 60.8C40.54 60.43 38.97 60.03 38.47 59.91C37.96 59.8 36.8 59.54 35.89 59.34C34.97 59.14 33.94 58.91 33.6 58.83C33.11 58.7 32.95 58.57 32.88 58.21C32.82 57.96 32.67 57 32.54 56.08C32.41 55.17 32.19 53.48 32.04 52.33C31.9 51.19 31.83 50.22 31.88 50.19C31.94 50.16 34.62 50.14 37.85 50.15C41.07 50.17 45.74 50.1 48.21 50.01C50.68 49.92 53.57 49.76 54.62 49.67C55.67 49.57 57.17 49.42 57.95 49.33C58.73 49.25 60.34 49.06 61.53 48.91C62.72 48.77 65.19 48.36 67.03 48C68.86 47.64 71.11 47.12 72.02 46.85C72.94 46.58 74.14 46.19 74.69 45.99C75.33 45.76 75.78 45.68 75.95 45.77C76.1 45.85 76.56 46.33 76.96 46.83C77.37 47.34 78.45 48.76 79.37 50C80.28 51.24 81.63 53.11 82.37 54.17C83.1 55.22 84.21 56.87 84.84 57.83C85.47 58.8 86.47 60.37 87.05 61.33C87.63 62.3 88.1 63.1 88.1 63.13C88.09 63.15 88.31 63.52 88.58 63.96C88.85 64.39 89.41 65.39 89.83 66.17C90.25 66.95 91.27 68.97 92.1 70.67C92.93 72.36 93.94 74.54 94.33 75.5C94.73 76.46 95.32 77.92 95.64 78.75C95.96 79.57 96.46 80.92 96.74 81.75C97.03 82.57 97.44 83.92 97.67 84.75C97.9 85.58 98.3 87.11 98.57 88.17C98.84 89.22 99.18 90.65 99.32 91.33C99.46 92.02 99.65 93.11 99.74 93.75C99.83 94.39 100.02 95.63 100.15 96.5C100.28 97.37 100.48 99.58 100.58 101.42C100.69 103.25 100.73 105.65 100.67 106.75C100.62 107.85 100.53 109.31 100.49 110C100.44 110.69 100.32 111.77 100.23 112.42C100.14 113.06 99.95 114.3 99.81 115.17C99.67 116.04 99.41 117.46 99.22 118.33C99.03 119.2 98.44 121.34 97.91 123.08C97.38 124.83 96.63 126.96 96.25 127.83C95.87 128.7 95.44 129.68 95.3 130C95.15 130.32 94.64 131.41 94.16 132.42C93.67 133.42 92.78 135.07 92.18 136.08C91.58 137.09 91.08 138.03 91.08 138.17C91.08 138.35 91.36 138.45 92.13 138.53C92.7 138.6 93.35 138.6 93.56 138.53C93.78 138.47 94.27 138 94.65 137.5C95.02 137 95.67 136.17 96.07 135.67C96.48 135.16 97.44 133.77 98.22 132.58C98.99 131.39 99.67 130.3 99.71 130.17C99.76 130.03 99.93 129.73 100.08 129.5C100.23 129.27 100.67 128.5 101.05 127.79C101.43 127.08 102.05 125.81 102.43 124.96C102.8 124.11 103.49 122.4 103.95 121.17C104.41 119.93 105.07 117.79 105.41 116.42C105.76 115.04 106.23 112.87 106.47 111.58C106.7 110.3 107.01 108.18 107.15 106.88C107.31 105.37 107.41 102.96 107.41 100.29C107.41 97.83 107.31 95.15 107.17 93.83C107.04 92.6 106.78 90.57 106.58 89.33C106.38 88.1 105.96 85.88 105.63 84.42C105.3 82.95 104.74 80.74 104.38 79.5C104.01 78.26 103.58 76.8 103.41 76.25C103.25 75.7 102.81 74.42 102.45 73.42C102.09 72.41 101.19 70.12 100.46 68.33C99.72 66.55 98.44 63.7 97.61 62C96.77 60.3 95.52 57.87 94.82 56.58C94.12 55.3 92.86 53.13 92.03 51.75C91.2 50.38 89.9 48.31 89.14 47.17C88.38 46.02 87.4 44.56 86.96 43.92C86.52 43.27 85.63 42.04 84.97 41.17C84.31 40.3 83.38 39.07 82.89 38.43C82.41 37.8 81.86 37.18 81.67 37.06C81.38 36.88 81.18 36.93 80.09 37.51Z" />
		<path class="shp2" d="M86.94 39.6C86.93 39.68 87.17 40.13 87.48 40.58C87.79 41.04 88.98 42.88 90.13 44.67C91.28 46.45 92.61 48.59 93.09 49.42C93.57 50.24 94.37 51.63 94.86 52.5C95.35 53.37 96.61 55.81 97.66 57.92C98.7 60.02 99.91 62.57 100.34 63.58C100.77 64.59 101.38 66.05 101.7 66.83C102.01 67.61 102.79 69.71 103.43 71.5C104.07 73.29 104.93 75.99 105.35 77.5C105.77 79.01 106.3 81.07 106.52 82.08C106.74 83.09 107.06 84.63 107.24 85.5C107.41 86.37 107.7 88.25 107.89 89.67C108.08 91.09 108.31 93.22 108.42 94.42C108.52 95.61 108.61 97.97 108.6 99.67C108.6 101.36 108.51 103.61 108.41 104.67C108.31 105.72 108.16 107.18 108.08 107.92C107.99 108.65 107.81 109.92 107.67 110.75C107.53 111.58 107.41 112.34 107.41 112.46C107.41 112.57 107.46 112.67 107.53 112.67C107.6 112.67 107.89 111.68 108.18 110.46C108.47 109.25 108.79 107.84 108.89 107.33C108.98 106.83 109.26 104.92 109.5 103.08C109.89 100.12 109.93 99.21 109.93 94.83C109.92 91.63 109.83 89.04 109.66 87.42C109.52 86.04 109.3 84.35 109.17 83.67C109.04 82.98 108.81 81.74 108.66 80.92C108.52 80.09 108.17 78.37 107.88 77.08C107.6 75.8 107.15 74 106.89 73.08C106.62 72.17 106.19 70.7 105.92 69.83C105.66 68.96 105.17 67.5 104.83 66.58C104.49 65.67 104.04 64.43 103.83 63.83C103.63 63.24 103.3 62.45 103.12 62.08C102.93 61.72 102.59 60.93 102.37 60.33C102.14 59.74 101.73 58.8 101.44 58.25C101.16 57.7 100.83 56.99 100.71 56.67C100.59 56.35 99.75 54.66 98.85 52.92C97.94 51.17 96.6 48.77 95.87 47.58C95.14 46.39 94.23 44.97 93.86 44.42C93.49 43.87 93.04 43.21 92.85 42.95C92.66 42.69 92.27 42.21 91.99 41.87C91.62 41.42 90.99 41.03 89.74 40.46C88.79 40.03 87.78 39.63 87.49 39.57C87.21 39.51 86.96 39.52 86.94 39.6ZM165.4 47.21C165.31 47.32 165.19 47.57 165.13 47.75C165.06 47.93 164.78 49.43 164.51 51.08C164.23 52.73 163.9 54.68 163.78 55.42C163.66 56.15 163.28 58.32 162.94 60.25C162.61 62.17 162.27 64.16 162.2 64.67C162.13 65.17 161.79 67.16 161.45 69.08C161.11 71.01 160.73 73.22 160.61 74C160.48 74.78 160.22 76.28 160.03 77.33C159.84 78.39 159.24 81.91 158.68 85.17C158.13 88.42 157.57 91.72 157.44 92.5C157.32 93.28 157.1 94.55 156.96 95.33C156.83 96.11 156.41 98.55 156.03 100.75C155.65 102.95 155.28 105.16 155.19 105.67C155.11 106.17 154.93 107.18 154.8 107.92C154.66 108.65 154.54 109.46 154.54 109.71C154.54 109.96 154.38 110.62 154.2 111.17C154.02 111.72 153.35 113.24 152.71 114.54C152.08 115.85 150.99 118 150.29 119.33C149.59 120.66 148.59 122.46 148.08 123.33C147.57 124.2 146.61 125.74 145.94 126.75C145.28 127.76 144.6 128.9 144.43 129.29C144.26 129.68 144.18 130.06 144.25 130.13C144.32 130.19 144.88 130.05 145.5 129.81C146.12 129.56 147.14 129.15 147.78 128.89C148.41 128.63 149.11 128.23 149.34 128C149.57 127.77 150.04 127.1 150.39 126.5C150.74 125.9 151.24 125 151.49 124.5C151.75 124 152.12 123.36 152.3 123.08C152.49 122.81 153.01 121.91 153.45 121.08C153.9 120.26 154.88 118.35 155.64 116.83C156.39 115.32 157.16 113.6 157.34 113C157.53 112.4 157.86 111.05 158.09 110C158.32 108.95 158.7 107.11 158.95 105.92C159.19 104.72 159.84 101.58 160.39 98.92C160.93 96.26 161.64 92.88 161.94 91.42C162.25 89.95 162.66 88 162.86 87.08C163.05 86.17 163.31 84.97 163.43 84.42C163.55 83.87 163.75 82.85 163.86 82.17C163.97 81.48 164.2 80.43 164.37 79.83C164.53 79.24 164.75 78.19 164.85 77.5C164.95 76.81 165.14 75.88 165.26 75.42C165.39 74.96 165.66 73.68 165.86 72.58C166.06 71.48 166.32 70.21 166.44 69.75C166.56 69.29 166.82 68.02 167.02 66.92C167.22 65.82 167.6 64.02 167.86 62.92C168.12 61.82 168.42 60.43 168.53 59.83C168.63 59.24 168.97 57.66 169.27 56.33C169.57 55 169.86 53.58 169.92 53.17C169.98 52.75 170.15 51.85 170.3 51.17C170.5 50.2 170.52 49.83 170.38 49.54C170.25 49.3 169.41 48.79 167.98 48.09C166.77 47.49 165.73 47.01 165.67 47C165.61 47 165.49 47.09 165.4 47.21Z" />
		<path class="shp0" d="M106.54 47.72C106.59 47.92 107.01 48.53 107.47 49.08C107.94 49.63 109.22 50.98 110.32 52.07C111.42 53.17 113.02 54.63 113.88 55.32C114.74 56.02 115.83 56.87 116.3 57.22C116.77 57.56 117.97 58.4 118.98 59.06C119.99 59.73 121.34 60.56 121.98 60.92C122.62 61.27 123.8 61.88 124.6 62.28C125.4 62.68 126.13 63 126.22 63C126.32 63 126.51 63.17 126.65 63.38C126.87 63.71 126.89 65.3 126.84 76.75C126.8 84.84 126.7 90.19 126.59 90.92C126.49 91.56 126.29 93.13 126.14 94.42C125.99 95.7 125.76 97.5 125.62 98.42C125.48 99.33 125.15 101.17 124.89 102.5C124.62 103.83 124.32 105.29 124.22 105.75C124.12 106.21 123.86 107.3 123.65 108.17C123.43 109.04 123.09 110.42 122.9 111.25C122.7 112.08 122.2 113.88 121.78 115.25C121.36 116.63 120.92 117.97 120.81 118.25C120.69 118.52 120.43 119.27 120.22 119.92C120.02 120.56 119.7 121.42 119.53 121.83C119.35 122.25 118.86 123.33 118.44 124.25C118.02 125.17 117.49 126.25 117.27 126.67C117.04 127.08 116.48 128.09 116.02 128.92C115.56 129.74 114.25 131.8 113.12 133.5C111.99 135.2 110.9 136.79 110.69 137.04C110.37 137.45 110.35 137.53 110.57 137.73C110.77 137.92 111.16 137.93 112.65 137.8C113.66 137.72 114.67 137.55 114.89 137.45C115.11 137.34 115.7 136.72 116.19 136.08C116.69 135.44 117.33 134.57 117.62 134.14C117.91 133.72 118.64 132.67 119.24 131.81C119.84 130.95 120.94 129.27 121.68 128.08C122.41 126.89 123.31 125.39 123.66 124.76C124.02 124.12 124.59 123.11 124.93 122.51C125.27 121.91 126.19 120.12 126.97 118.54C127.75 116.96 128.39 115.63 128.39 115.58C128.39 115.54 128.68 114.88 129.04 114.13C129.39 113.37 129.95 112.09 130.29 111.29C130.62 110.49 131.08 109.29 131.32 108.63C131.56 107.96 132.15 106.22 132.65 104.75C133.14 103.28 133.61 101.75 133.69 101.33C133.78 100.92 134.07 99.68 134.35 98.58C134.64 97.48 134.98 96.02 135.12 95.33C135.25 94.65 135.48 93.18 135.62 92.08C135.76 90.98 135.96 88.66 136.05 86.92C136.15 85.17 136.3 82.29 136.39 80.5C136.48 78.71 136.66 75.22 136.8 72.75C136.93 70.27 137.12 66.6 137.22 64.58C137.33 62.35 137.33 60.85 137.24 60.75C137.16 60.66 136.61 60.46 136.03 60.3C135.44 60.14 134.22 59.86 133.3 59.66C132.39 59.47 130.93 59.12 130.05 58.88C129.18 58.65 128.02 58.33 127.47 58.17C126.92 58 125.39 57.44 124.06 56.92C122.73 56.39 121.2 55.75 120.65 55.5C120.1 55.25 119.12 54.78 118.48 54.46C117.84 54.15 116.57 53.47 115.65 52.97C114.73 52.47 113.37 51.67 112.61 51.19C111.86 50.72 111.2 50.33 111.15 50.33C111.11 50.33 110.34 49.84 109.45 49.23C108.55 48.62 107.71 48.03 107.57 47.91C107.44 47.79 107.13 47.61 106.89 47.52C106.48 47.37 106.45 47.39 106.54 47.72Z" />
		<path class="shp2" d="M72.69 48.6C72.23 48.73 71.56 48.91 71.19 48.99C70.82 49.07 70 49.26 69.36 49.41C68.72 49.56 67.55 49.78 66.78 49.91C66 50.04 64.95 50.23 64.44 50.32C63.94 50.42 62.22 50.65 60.61 50.84C59.01 51.02 57.1 51.25 56.37 51.33C55.64 51.42 53.78 51.55 52.25 51.62C50.72 51.69 49.52 51.81 49.59 51.88C49.65 51.96 52.93 51.98 56.87 51.93C60.81 51.89 64.93 51.78 66.03 51.69C67.13 51.6 68.74 51.45 69.61 51.35C70.48 51.25 71.49 51.1 71.85 51.02C72.22 50.93 73.05 50.78 73.69 50.68C74.33 50.58 75 50.4 75.19 50.27C75.52 50.05 75.51 50.04 75.1 49.41C74.87 49.06 74.54 48.68 74.35 48.55C74.17 48.43 73.91 48.34 73.77 48.35C73.63 48.36 73.15 48.47 72.69 48.6ZM121 49.04C121.04 49.11 121.64 49.5 122.35 49.92C123.06 50.33 124.54 51.05 125.64 51.51C126.74 51.97 127.83 52.45 128.06 52.57C128.29 52.69 129.33 53.05 130.39 53.37C131.44 53.69 132.75 54.09 133.3 54.26C133.85 54.42 134.64 54.61 135.05 54.68C135.46 54.74 137 55.03 138.46 55.31C139.93 55.59 142.18 55.98 143.46 56.17C144.74 56.36 146.47 56.56 147.29 56.62C148.66 56.71 148.8 56.69 148.92 56.4C149 56.23 149.1 55.63 149.16 55.08C149.21 54.53 149.19 54.03 149.11 53.97C149.02 53.92 147.68 53.78 146.12 53.68C144.57 53.57 142.17 53.37 140.8 53.24C139.42 53.1 137.25 52.84 135.97 52.66C134.68 52.47 133.52 52.29 133.39 52.25C133.25 52.21 132.65 52.1 132.05 52.01C131.46 51.92 130.41 51.72 129.72 51.57C129.03 51.43 127.8 51.09 126.97 50.83C126.15 50.56 125.18 50.28 124.81 50.19C124.44 50.11 123.42 49.78 122.54 49.48C121.66 49.17 120.97 48.97 121 49.04ZM116.05 59.63C116.14 59.79 116.65 60.4 117.18 61C117.71 61.6 119.2 63.11 120.48 64.36C121.76 65.61 123.11 66.87 123.48 67.16C123.84 67.44 124.24 67.68 124.35 67.67C124.47 67.67 124.61 67.46 124.67 67.21C124.72 66.96 124.72 66.41 124.67 66C124.6 65.49 124.43 65.14 124.16 64.92C123.94 64.73 123.5 64.41 123.2 64.2C122.89 64 121.94 63.36 121.09 62.79C120.23 62.22 119.37 61.64 119.17 61.5C118.98 61.36 118.23 60.82 117.52 60.29C116.81 59.77 116.15 59.33 116.06 59.33C115.94 59.33 115.93 59.43 116.05 59.63ZM139 62.52C138.95 62.74 138.82 64.53 138.72 66.5C138.62 68.47 138.47 71.06 138.38 72.25C138.29 73.44 138.1 76.4 137.96 78.83C137.82 81.26 137.63 84.22 137.55 85.42C137.46 86.61 137.32 88.65 137.22 89.96C137.13 91.26 136.89 93.14 136.71 94.13C136.52 95.11 136.06 97.08 135.7 98.5C135.33 99.92 134.81 101.76 134.53 102.58C134.25 103.41 133.96 104.23 133.89 104.42C133.81 104.6 133.59 105.24 133.41 105.83C133.23 106.43 132.78 107.7 132.42 108.67C132.06 109.63 131.41 111.28 130.98 112.33C130.55 113.39 129.19 116.27 127.97 118.75C126.74 121.22 125.47 123.74 125.15 124.33C124.82 124.93 124.2 126 123.77 126.72C123.33 127.43 122.53 128.71 121.98 129.57C121.43 130.42 120.63 131.64 120.19 132.27C119.76 132.9 119.12 133.79 118.77 134.25C118.43 134.71 117.9 135.48 117.6 135.96C117.31 136.44 117.07 136.91 117.07 137C117.07 137.1 117.34 137.13 117.77 137.06C118.16 137.01 118.6 136.87 118.75 136.77C118.89 136.67 119.31 136.24 119.66 135.81C120.02 135.39 120.71 134.57 121.19 133.98C121.67 133.4 122.78 131.94 123.67 130.75C124.55 129.56 125.59 128.1 125.97 127.5C126.36 126.9 126.88 126.08 127.13 125.67C127.38 125.25 127.96 124.28 128.41 123.5C128.87 122.72 129.66 121.22 130.17 120.17C130.68 119.11 131.66 117.01 132.34 115.5C133.03 113.99 133.72 112.38 133.88 111.92C134.04 111.46 134.51 110.26 134.93 109.25C135.34 108.24 135.98 106.52 136.34 105.42C136.71 104.32 137.31 102.29 137.69 100.92C138.07 99.54 138.63 97.22 138.95 95.75C139.26 94.28 139.61 92.07 139.72 90.83C139.83 89.6 139.98 87.87 140.05 87C140.12 86.13 140.3 84.29 140.44 82.92C140.58 81.54 140.82 79.14 140.97 77.58C141.11 76.02 141.42 72.88 141.65 70.58C141.89 68.29 142.09 65.78 142.1 65.01L142.13 63.6C140.51 62.62 139.83 62.29 139.57 62.23C139.17 62.14 139.08 62.19 139 62.52ZM37.19 74.97C36.71 75.03 36.23 75.16 36.13 75.25C35.99 75.37 35.99 75.77 36.14 76.83C36.25 77.61 36.4 78.61 36.48 79.04C36.57 79.48 36.63 80.26 36.63 80.79C36.63 81.55 36.7 81.82 36.97 82.08L37.31 82.42C37.31 81 37.42 79.72 37.55 78.67C37.68 77.58 37.88 76.66 38 76.55C38.12 76.44 38.74 76.27 39.38 76.18C40.02 76.09 41.49 75.93 42.63 75.84C43.77 75.74 45.39 75.66 46.21 75.65C47.03 75.64 48.16 75.58 48.71 75.52C49.7 75.41 49.7 75.41 47.71 75.19C46.61 75.07 43.99 74.95 41.88 74.92C39.77 74.88 37.66 74.91 37.19 74.97ZM75.77 77.28C76.46 77.99 77.25 78.79 77.53 79.07C77.82 79.35 78.49 80.11 79.03 80.75C79.57 81.39 80.12 82.06 80.26 82.23C80.4 82.41 80.71 82.78 80.94 83.07C81.18 83.35 81.96 84.45 82.67 85.5C83.39 86.55 84.38 88.24 84.88 89.25C85.39 90.26 85.98 91.46 86.22 91.92C86.45 92.38 86.77 93.13 86.93 93.58C87.09 94.04 87.52 95.28 87.89 96.33C88.25 97.39 88.72 98.89 88.92 99.67C89.13 100.45 89.36 101.4 89.44 101.79C89.55 102.31 89.66 102.48 89.84 102.42C89.98 102.37 90.13 102.33 90.17 102.33C90.22 102.33 90.44 101.96 90.67 101.5C90.9 101.04 91.09 100.42 91.09 100.13C91.09 99.83 90.91 98.91 90.7 98.08C90.48 97.26 90.02 95.87 89.68 95C89.33 94.13 88.58 92.44 88 91.25C87.42 90.06 86.35 88.18 85.63 87.08C84.91 85.98 83.49 84.15 82.49 83C81.48 81.85 79.99 80.3 79.17 79.55C78.35 78.8 77.03 77.69 76.23 77.09C75.42 76.49 74.71 76 74.64 76C74.58 76 75.08 76.57 75.77 77.28Z" />
		<path class="shp0" d="M43.21 95.77C42.02 95.9 40.34 96.16 39.47 96.35C38.6 96.54 37.66 96.76 37.38 96.84C37.11 96.92 36.84 97.08 36.78 97.2C36.72 97.32 36.84 98.5 37.05 99.83C37.26 101.16 37.61 103.41 37.82 104.83C38.03 106.25 38.23 107.75 38.27 108.17C38.31 108.67 38.26 108.98 38.11 109.1C37.99 109.21 37.32 109.53 36.64 109.82C35.95 110.12 35.05 110.53 34.64 110.75C34.22 110.97 33.86 111.28 33.84 111.45C33.8 111.66 34.09 111.95 34.84 112.44C35.41 112.81 36.64 113.73 37.55 114.46C38.47 115.2 39.89 116.48 40.72 117.31C41.54 118.14 42.74 119.38 43.38 120.07C44.02 120.76 44.6 121.33 44.67 121.33C44.74 121.33 44.65 121.01 44.48 120.63C44.31 120.24 43.75 119.02 43.23 117.92C42.72 116.82 42.29 115.79 42.3 115.63C42.3 115.46 42.67 115.07 43.13 114.75C43.59 114.43 44 114.17 44.05 114.17C44.09 114.17 44.71 113.79 45.42 113.34C46.13 112.88 46.75 112.51 46.79 112.51C46.84 112.51 47.59 112.12 48.46 111.65C49.33 111.17 50.64 110.52 51.37 110.2C52.11 109.89 53.23 109.42 53.87 109.16C54.51 108.91 55.52 108.51 56.12 108.28C56.71 108.05 57.84 107.71 58.62 107.52C59.39 107.33 60.67 107.06 61.45 106.92C62.23 106.78 64.02 106.57 65.44 106.47C67.35 106.34 68.67 106.34 70.52 106.48C71.9 106.58 73.81 106.81 74.77 106.99C75.73 107.17 76.97 107.44 77.52 107.59C78.07 107.73 78.91 108.04 79.39 108.26C79.87 108.48 80.32 108.67 80.39 108.66C80.46 108.66 81.23 109.08 82.1 109.59C82.97 110.1 83.9 110.73 84.18 110.97C84.45 111.22 84.92 111.59 85.22 111.8C85.57 112.04 85.76 112.09 85.76 111.96C85.77 111.84 85.71 111.69 85.64 111.61C85.57 111.53 85.5 111.38 85.5 111.28C85.49 111.17 85.11 110.56 84.66 109.93C84.21 109.3 83.51 108.48 83.1 108.12C82.68 107.76 81.9 107.14 81.35 106.76C80.8 106.37 79.82 105.77 79.18 105.43C78.54 105.09 77.3 104.56 76.43 104.25C75.56 103.94 74.29 103.53 73.6 103.35C72.92 103.16 71.79 102.9 71.11 102.77C70.42 102.63 68.88 102.43 67.69 102.31C65.96 102.15 64.88 102.15 62.28 102.32C60.49 102.43 58.21 102.66 57.2 102.83C56.19 103 54.84 103.26 54.2 103.42C53.56 103.57 52.25 103.93 51.29 104.2C50.33 104.47 49.32 104.76 49.04 104.83C48.77 104.91 48.02 105.15 47.38 105.38C46.73 105.61 44.94 106.29 43.38 106.9C41.82 107.51 40.45 107.97 40.34 107.92C40.23 107.87 40.06 107.33 39.97 106.71C39.88 106.09 39.77 105.1 39.72 104.5C39.66 103.9 39.54 102.89 39.44 102.25C39.35 101.61 39.15 100.56 39.02 99.92C38.83 99.04 38.81 98.66 38.95 98.38C39.06 98.15 39.38 97.94 39.76 97.84C40.1 97.75 40.76 97.6 41.21 97.49C41.67 97.39 42.98 97.16 44.13 96.99C45.27 96.82 47.77 96.58 49.67 96.46C51.57 96.35 53.12 96.21 53.12 96.17C53.12 96.12 52.73 96.03 52.25 95.96C51.77 95.89 51 95.76 50.54 95.67C50.08 95.59 48.73 95.52 47.54 95.53C46.35 95.54 44.4 95.64 43.21 95.77Z" />
		<path class="shp2" d="M45.46 97.91C44.5 98.03 43.26 98.22 42.71 98.33C42.16 98.44 41.38 98.6 40.96 98.69C40.55 98.79 40.12 98.95 40 99.06C39.86 99.18 39.79 99.66 39.8 100.42C39.8 101.06 39.9 102.18 40.02 102.92C40.14 103.65 40.32 104.4 40.42 104.58C40.57 104.85 40.62 104.87 40.68 104.67C40.73 104.53 40.84 104.02 40.95 103.54C41.05 103.06 41.13 102.46 41.13 102.21C41.13 101.96 41.22 101.49 41.34 101.17C41.52 100.68 41.74 100.51 42.88 99.98C43.61 99.65 44.96 99.17 45.88 98.92C46.79 98.67 47.82 98.36 48.17 98.24C48.51 98.11 49.03 98 49.33 98C49.63 98 49.99 97.92 50.12 97.83C50.29 97.72 49.87 97.68 48.79 97.69C47.92 97.7 46.42 97.8 45.46 97.91ZM53.87 110.57C53.5 110.69 52.77 110.98 52.25 111.23C51.72 111.47 51.23 111.67 51.16 111.67C51.1 111.67 50.63 111.87 50.12 112.1C49.62 112.34 48.72 112.78 48.13 113.08C47.53 113.38 46.74 113.79 46.38 114C46.01 114.21 45.39 114.59 45 114.85C44.61 115.12 44.24 115.33 44.17 115.33C44.1 115.32 43.92 115.46 43.76 115.62C43.6 115.78 43.47 116.07 43.47 116.25C43.46 116.43 43.71 117.18 44.01 117.92C44.31 118.65 44.63 119.36 44.71 119.5C44.83 119.68 44.9 119.29 44.96 118.17L45.04 116.6C46.51 115.42 47.93 114.49 49.15 113.77C50.37 113.04 51.56 112.32 51.79 112.17C52.02 112.01 52.73 111.61 53.37 111.28C54.01 110.95 54.65 110.6 54.79 110.51C55.01 110.36 55.01 110.34 54.79 110.35C54.65 110.35 54.24 110.45 53.87 110.57Z" />
		<path class="shp0" d="M67.13 113.75C67.03 113.89 66.99 114.13 67.04 114.29C67.09 114.45 67.46 115.07 67.85 115.67C68.55 116.73 68.59 116.76 70.13 117.35C70.99 117.68 72.33 118.19 73.1 118.49C73.88 118.79 74.74 119.07 75.02 119.11C75.41 119.18 75.62 119.09 75.98 118.72C76.23 118.46 76.44 118.14 76.44 118C76.44 117.86 76.16 117.48 75.81 117.15C75.47 116.82 74.81 116.3 74.35 115.99C73.89 115.69 73 115.2 72.35 114.9C71.71 114.61 70.48 114.18 69.61 113.94C68.74 113.7 67.86 113.5 67.67 113.5C67.47 113.5 67.23 113.61 67.13 113.75ZM54.45 116.43C53.77 116.85 53.07 117.34 52.91 117.51C52.75 117.69 52.64 117.84 52.66 117.84C52.69 117.84 52.93 117.75 53.2 117.63C53.48 117.51 54.17 117.1 54.74 116.71C55.32 116.32 55.81 115.92 55.85 115.83C55.88 115.74 55.86 115.67 55.81 115.66C55.75 115.66 55.14 116.01 54.45 116.43Z" />
		<path class="shp2" d="M54.45 116.89C54.04 117.2 53.59 117.48 53.45 117.52C53.27 117.58 53.26 117.63 53.41 117.72C53.53 117.78 53.84 117.65 54.12 117.42C54.39 117.19 54.68 117 54.74 117.01C54.81 117.01 55.01 116.86 55.18 116.67C55.35 116.49 55.42 116.34 55.34 116.34C55.27 116.34 54.87 116.59 54.45 116.89ZM55.95 116.9C55.54 117.11 54.9 117.49 54.54 117.74C54.17 117.99 53.77 118.34 53.66 118.51C53.47 118.79 53.48 118.82 53.74 118.72C53.9 118.66 54.37 118.42 54.79 118.19C55.2 117.96 55.84 117.55 56.2 117.27C56.57 117 56.94 116.71 57.03 116.64C57.12 116.56 57.09 116.5 56.94 116.5C56.81 116.51 56.36 116.68 55.95 116.9ZM69.86 118.48C69.95 118.57 71.15 119.06 72.52 119.57C73.9 120.08 75.3 120.5 75.64 120.5C76.13 120.5 76.32 120.41 76.52 120.08C76.65 119.85 76.73 119.55 76.68 119.42C76.63 119.24 76.5 119.2 76.25 119.29C76.05 119.36 75.81 119.51 75.71 119.63C75.6 119.75 75.35 119.84 75.14 119.84C74.94 119.84 74.38 119.73 73.89 119.6C73.41 119.48 72.36 119.14 71.56 118.85C70.76 118.57 70.01 118.33 69.9 118.33C69.76 118.33 69.75 118.38 69.86 118.48ZM44.12 119.79C44.13 119.91 44.28 120.3 44.46 120.67C44.64 121.03 44.72 121.33 44.63 121.33C44.54 121.33 44.43 121.24 44.39 121.13C44.35 121.01 44.31 120.99 44.3 121.08C44.29 121.17 44.49 121.44 44.73 121.67L45.17 122.08C44.97 121.44 44.8 120.99 44.65 120.67C44.51 120.35 44.39 120.03 44.39 119.97C44.38 119.91 44.32 119.8 44.25 119.72C44.18 119.65 44.12 119.68 44.12 119.79Z" />
		<path class="shp0" d="M55.99 120.6L54.95 120.67C53.76 122.28 53.25 123.09 53.04 123.5C52.83 123.91 52.47 124.79 52.23 125.46C51.99 126.12 51.79 127 51.79 127.42C51.79 128.12 51.85 128.22 52.75 129.04C53.28 129.52 54.23 130.27 54.87 130.69C55.51 131.12 56.22 131.56 56.45 131.67C56.82 131.84 57.08 131.76 58.62 131.03C59.58 130.58 61.17 129.67 62.15 129.02C63.18 128.34 64 127.67 64.08 127.46C64.16 127.24 64.13 126.45 64 125.58C63.88 124.76 63.71 123.75 63.63 123.33C63.54 122.92 63.39 122.28 63.29 121.92C63.19 121.55 62.98 121.12 62.82 120.97C62.58 120.73 62.07 120.68 59.78 120.61C58.27 120.57 56.57 120.57 55.99 120.6Z" />
		<path class="shp2" d="M64.62 126.5C64.6 127 64.52 127.57 64.44 127.75C64.32 128.04 64.3 128.02 64.28 127.58C64.26 127.11 64.25 127.1 64.1 127.46C64.02 127.66 63.85 127.88 63.74 127.95C63.59 128.03 63.63 128.1 63.86 128.19C64.13 128.3 64.09 128.32 63.7 128.29C63.28 128.26 63.2 128.31 63.24 128.58C63.28 128.85 63.26 128.87 63.13 128.67C63 128.46 62.76 128.56 61.71 129.29C61.02 129.77 59.66 130.54 58.7 131L56.95 131.83C57.37 132.53 57.6 132.67 57.91 132.67C58.16 132.67 58.78 132.46 59.28 132.19C59.79 131.93 60.76 131.39 61.45 131C62.13 130.61 63.2 129.94 63.82 129.52C64.69 128.93 64.97 128.63 65.05 128.25C65.1 127.97 65.06 127.45 64.96 127.08C64.87 126.72 64.76 126.23 64.72 126C64.69 125.77 64.64 126 64.62 126.5Z" />
		<path class="shp0" d="M73.94 128.13L71.36 130.08C71.36 135.65 71.4 136.21 71.61 136.35C71.76 136.46 72.6 136.49 73.77 136.44C74.85 136.4 75.94 136.26 76.27 136.13C76.59 136 77.09 135.6 77.37 135.24C77.66 134.88 78.12 134.13 78.4 133.58C78.67 133.03 79.09 131.98 79.33 131.25C79.58 130.51 79.72 129.77 79.67 129.58C79.61 129.4 79.03 128.55 78.37 127.7C77.55 126.62 77.08 126.16 76.85 126.17C76.67 126.17 75.36 127.06 73.94 128.13Z" />
		<path class="shp2" d="M79.28 131.38C79.07 132.04 78.68 133.03 78.4 133.58C78.13 134.13 77.64 134.9 77.33 135.29C77.02 135.68 76.56 136.05 76.31 136.11C75.89 136.21 75.88 136.23 76.18 136.35C76.37 136.42 76.19 136.44 75.77 136.38C75.36 136.33 74.87 136.34 74.69 136.41C74.41 136.52 74.49 136.59 75.19 136.84C75.64 137.01 76.26 137.15 76.56 137.15C76.86 137.16 77.32 137.04 77.6 136.88C77.95 136.67 78.33 136.1 78.92 134.92C79.38 134 79.9 132.72 80.09 132.08C80.28 131.44 80.44 130.86 80.43 130.79C80.43 130.72 80.32 130.55 80.18 130.42C80.04 130.28 79.87 130.17 79.8 130.17C79.72 130.17 79.49 130.71 79.28 131.38Z" />
		<path class="shp1" d="M52.94 139.62C52.76 139.68 52.73 140.55 52.75 144.14C52.77 147.54 52.82 148.63 52.99 148.77C53.11 148.87 53.92 149.14 54.79 149.38C55.66 149.61 56.91 149.96 57.58 150.15C58.24 150.34 58.93 150.5 59.12 150.5C59.36 150.5 59.44 150.4 59.41 150.14C59.38 149.89 59.2 149.72 58.87 149.63C58.59 149.55 57.95 149.37 57.45 149.24C56.95 149.1 56.12 148.87 55.62 148.72C55.12 148.57 54.57 148.33 54.41 148.18C54.17 147.97 54.11 147.66 54.11 146.75C54.11 146.08 54.2 145.45 54.33 145.28C54.53 144.99 54.63 145.01 56.53 145.57C57.63 145.9 58.66 146.16 58.82 146.16C58.98 146.17 59.15 146.07 59.18 145.96C59.22 145.84 59.2 145.66 59.14 145.54C59.08 145.43 58.02 145.03 56.78 144.66C55.55 144.29 54.44 143.9 54.32 143.79C54.19 143.66 54.11 143.21 54.12 142.67C54.12 142.16 54.18 141.57 54.25 141.36C54.35 141.02 54.45 140.98 54.87 141.06C55.14 141.11 55.89 141.31 56.53 141.5C57.18 141.68 58.04 141.91 58.45 142.01C58.86 142.1 59.29 142.14 59.41 142.09C59.52 142.04 59.61 141.94 59.61 141.88C59.61 141.81 59.56 141.66 59.49 141.55C59.42 141.44 58.05 140.97 56.45 140.5C54.85 140.03 53.45 139.63 53.35 139.6C53.25 139.57 53.07 139.58 52.94 139.62ZM141.19 140.19C139.96 140.55 138.48 141 137.88 141.19C136.98 141.48 136.79 141.61 136.76 141.94C136.73 142.16 136.79 142.33 136.88 142.33C136.97 142.33 137.52 142.22 138.09 142.07C138.66 141.93 139.22 141.85 139.34 141.91C139.5 141.98 139.55 142.89 139.55 145.67C139.55 147.68 139.58 149.45 139.63 149.58C139.68 149.72 139.86 149.83 140.05 149.83C140.23 149.83 140.53 149.68 140.71 149.5C141.02 149.19 141.05 148.92 141.07 145.36C141.1 142.14 141.14 141.51 141.37 141.29C141.51 141.14 142 140.93 142.46 140.82C142.92 140.71 143.42 140.55 143.58 140.48C143.75 140.4 143.87 140.19 143.87 140.02C143.86 139.84 143.76 139.67 143.63 139.62C143.51 139.58 142.41 139.83 141.19 140.19ZM61.2 142.11C61.13 142.29 61.2 142.7 61.37 143.08C61.52 143.45 61.9 144.46 62.21 145.33C62.51 146.2 63.03 147.67 63.36 148.58C63.7 149.5 64.08 150.57 64.21 150.96C64.38 151.46 64.58 151.72 64.9 151.84C65.15 151.94 65.57 152 65.83 151.97C66.26 151.92 66.37 151.73 67.37 149.33C67.97 147.91 68.69 146.22 68.97 145.58C69.25 144.94 69.49 144.23 69.5 144.01C69.52 143.71 69.42 143.58 69.11 143.5C68.88 143.44 68.59 143.43 68.46 143.49C68.33 143.54 68.1 143.85 67.94 144.17C67.78 144.49 67.44 145.35 67.19 146.08C66.94 146.82 66.67 147.49 66.6 147.58C66.53 147.67 66.32 148.26 66.12 148.88C65.93 149.49 65.68 150.05 65.57 150.1C65.45 150.16 65.31 150.14 65.24 150.06C65.17 149.98 64.55 148.23 63.85 146.17C63.15 144.1 62.5 142.33 62.39 142.22C62.28 142.11 62 141.97 61.76 141.91C61.42 141.82 61.29 141.87 61.2 142.11ZM133.57 142.26C133.19 142.51 133.18 142.6 133.2 144.26C133.21 145.61 133.16 146.06 132.97 146.25C132.83 146.39 132.4 146.54 132.01 146.59C131.62 146.65 130.73 146.82 130.02 146.97C129.32 147.12 128.68 147.19 128.61 147.11C128.53 147.04 128.44 146.21 128.39 145.28C128.31 143.6 128.3 143.58 127.87 143.53C127.63 143.5 127.33 143.56 127.2 143.66C127.02 143.81 126.98 144.68 127.02 148.22C127.05 150.72 127.14 152.65 127.23 152.75C127.34 152.86 127.55 152.86 127.85 152.75L128.31 152.58C128.45 148.92 128.53 148.42 128.72 148.31C128.86 148.23 129.82 147.98 130.85 147.75C132.51 147.38 132.75 147.36 132.97 147.58C133.16 147.77 133.22 148.25 133.22 149.58C133.22 150.99 133.27 151.35 133.47 151.42C133.61 151.46 133.83 151.5 133.96 151.5C134.09 151.5 134.31 151.39 134.46 151.25C134.68 151.04 134.72 150.4 134.72 146.75C134.72 143.19 134.68 142.46 134.47 142.25C134.33 142.11 134.16 142 134.09 142C134.02 142 133.79 142.11 133.57 142.26ZM71.43 144.06C71.24 144.26 71.21 145.1 71.28 148.64C71.32 151.02 71.39 153.01 71.44 153.06C71.48 153.11 72.91 153.38 74.6 153.66C76.3 153.94 77.81 154.14 77.97 154.09C78.13 154.04 78.27 153.89 78.27 153.75C78.27 153.61 78.12 153.42 77.93 153.33C77.75 153.24 77.39 153.17 77.14 153.17C76.89 153.17 75.86 153.01 74.85 152.82C73.84 152.63 72.97 152.38 72.9 152.28C72.83 152.17 72.77 151.52 72.77 150.83C72.76 150.01 72.83 149.51 72.97 149.38C73.13 149.23 73.5 149.22 74.44 149.33C75.12 149.42 76.1 149.56 76.6 149.64C77.1 149.73 77.61 149.77 77.72 149.73C77.84 149.7 77.94 149.57 77.94 149.46C77.94 149.34 77.85 149.17 77.73 149.06C77.61 148.96 77.01 148.79 76.39 148.69C75.77 148.58 74.77 148.41 74.17 148.29C73.43 148.15 73.01 147.99 72.92 147.79C72.84 147.63 72.77 147.05 72.77 146.5C72.77 145.83 72.85 145.42 73.02 145.25C73.18 145.09 73.44 145.03 73.73 145.09C73.98 145.14 74.97 145.31 75.93 145.47C76.9 145.63 77.81 145.74 77.97 145.71C78.17 145.68 78.25 145.54 78.22 145.3C78.2 145.04 78.03 144.89 77.68 144.81C77.41 144.74 76.62 144.6 75.93 144.5C75.25 144.39 74.35 144.24 73.94 144.16C73.52 144.08 72.84 143.97 72.42 143.92C71.87 143.85 71.59 143.89 71.43 144.06ZM119.73 144.67C119.23 144.85 118.55 145.21 118.23 145.47C117.91 145.73 117.45 146.24 117.2 146.6C116.96 146.96 116.66 147.59 116.54 148C116.42 148.41 116.32 149.31 116.33 150C116.34 150.72 116.46 151.5 116.61 151.83C116.75 152.15 117.08 152.67 117.34 152.97C117.6 153.27 118.12 153.64 118.48 153.78C118.96 153.96 119.55 154.01 120.56 153.96C121.66 153.91 122.16 153.79 122.81 153.46C123.27 153.22 123.85 152.82 124.09 152.56C124.34 152.3 124.62 151.88 124.72 151.63C124.81 151.37 124.88 150.61 124.87 149.93C124.85 149.04 124.77 148.61 124.58 148.41C124.42 148.26 124.17 148.17 123.98 148.22C123.79 148.27 123.04 148.4 122.31 148.5C121.58 148.61 120.88 148.79 120.76 148.89C120.65 149 120.55 149.18 120.56 149.29C120.56 149.41 120.69 149.54 120.85 149.59C121.01 149.64 121.48 149.6 121.9 149.51C122.31 149.42 122.81 149.38 123.02 149.42C123.36 149.49 123.39 149.6 123.39 150.5C123.39 151.35 123.33 151.58 122.94 152.03C122.68 152.32 122.18 152.69 121.81 152.86C121.45 153.02 120.92 153.16 120.65 153.17C120.37 153.17 119.88 153.07 119.56 152.94C119.24 152.81 118.78 152.43 118.52 152.1C118.27 151.77 117.99 151.11 117.89 150.63C117.8 150.14 117.77 149.38 117.83 148.92C117.88 148.46 118.06 147.78 118.22 147.42C118.38 147.05 118.77 146.52 119.08 146.24C119.39 145.96 119.95 145.63 120.31 145.51C120.68 145.39 121.28 145.33 121.65 145.38C122.14 145.45 122.44 145.63 122.81 146.07C123.23 146.58 123.4 146.67 123.89 146.63C124.33 146.59 124.49 146.5 124.53 146.25C124.56 146.07 124.44 145.73 124.26 145.5C124.09 145.27 123.6 144.91 123.17 144.71C122.65 144.46 122.11 144.34 121.52 144.35C121.04 144.35 120.23 144.5 119.73 144.67ZM80.59 145.32C80.46 145.54 80.41 147.01 80.42 149.78C80.43 152.06 80.49 154.01 80.56 154.13C80.63 154.26 80.92 154.33 81.26 154.3L81.85 154.25L82.01 150.75C83.69 150.83 83.91 150.92 84.23 151.3C84.44 151.55 85.01 152.31 85.5 153C85.98 153.69 86.56 154.42 86.78 154.64C87 154.85 87.38 155.03 87.64 155.03C87.9 155.04 88.16 155 88.22 154.94C88.29 154.88 88.07 154.44 87.73 153.96C87.4 153.48 86.84 152.69 86.48 152.21C85.91 151.43 85.87 151.31 86.09 151.08C86.23 150.94 86.44 150.82 86.55 150.83C86.67 150.83 86.96 150.7 87.2 150.54C87.45 150.38 87.75 150.01 87.87 149.71C87.99 149.41 88.09 148.87 88.09 148.5C88.09 148.13 87.99 147.59 87.86 147.29C87.74 146.99 87.46 146.59 87.24 146.39C87.02 146.19 86.54 145.91 86.18 145.77C85.81 145.63 84.5 145.4 83.26 145.26C82.03 145.12 80.96 145 80.89 145C80.83 145 80.69 145.15 80.59 145.32ZM112.83 145.44C112.75 145.5 112.69 147.57 112.71 150.03C112.74 154.35 112.75 154.5 113.07 154.58C113.25 154.63 113.55 154.59 113.74 154.5C114.06 154.34 114.07 154.19 114.03 149.88L113.99 145.42C113.2 145.34 112.91 145.37 112.83 145.44ZM105.41 145.83C104.26 145.88 103.23 145.97 103.12 146.04C102.96 146.14 102.91 147.24 102.91 150.67C102.91 154.52 102.95 155.18 103.16 155.25C103.3 155.3 103.52 155.33 103.65 155.33C103.78 155.33 104 155.22 104.15 155.08C104.35 154.89 104.41 154.47 104.41 153.25C104.41 151.83 104.45 151.65 104.74 151.5C104.93 151.41 105.38 151.33 105.74 151.33C106.32 151.33 106.48 151.42 106.95 152.01C107.25 152.39 107.9 153.18 108.41 153.77C109.22 154.73 109.39 154.85 109.92 154.84C110.25 154.84 110.56 154.78 110.62 154.71C110.68 154.64 110.57 154.36 110.37 154.08C110.17 153.81 109.64 153.15 109.2 152.63C108.77 152.1 108.41 151.55 108.41 151.42C108.41 151.28 108.74 150.98 109.16 150.75C109.68 150.46 109.99 150.14 110.17 149.71C110.35 149.29 110.42 148.75 110.38 148.06C110.34 147.33 110.23 146.93 109.99 146.67C109.81 146.46 109.47 146.2 109.24 146.09C109.01 145.97 108.52 145.85 108.16 145.81C107.79 145.78 106.55 145.79 105.41 145.83ZM93.34 146.14C93.26 146.24 93.21 148.3 93.23 150.7C93.25 153.11 93.3 155.12 93.35 155.17C93.41 155.21 94.73 155.25 96.31 155.25C98.94 155.25 99.21 155.22 99.75 154.89C100.07 154.69 100.42 154.34 100.54 154.1C100.65 153.86 100.75 153.31 100.75 152.88C100.75 152.38 100.62 151.88 100.41 151.54C100.23 151.24 100.02 151 99.96 150.99C99.89 150.99 99.68 150.88 99.5 150.75C99.17 150.51 99.17 150.5 99.51 150.21C99.7 150.05 99.98 149.73 100.13 149.5C100.29 149.26 100.42 148.76 100.42 148.33C100.42 147.83 100.31 147.43 100.09 147.13C99.9 146.87 99.5 146.54 99.21 146.38C98.79 146.17 98.08 146.09 96.07 146.03C94.32 145.98 93.43 146.02 93.34 146.14Z" />
		<path class="shp0" d="M82.1 146.47C81.99 146.66 81.9 147.35 81.91 148.03C81.91 148.81 81.99 149.32 82.13 149.44C82.25 149.55 82.95 149.72 83.68 149.83C84.41 149.93 85.2 149.97 85.43 149.92C85.66 149.87 86.03 149.64 86.26 149.41C86.63 149.03 86.66 148.89 86.56 148.2C86.49 147.72 86.3 147.27 86.06 147.04C85.85 146.83 85.38 146.59 85.01 146.51C84.64 146.43 83.89 146.31 83.32 146.25C82.41 146.15 82.28 146.17 82.1 146.47ZM105.16 146.82L104.49 146.92C104.42 149.96 104.45 150.18 104.7 150.28C104.86 150.34 105.68 150.32 106.52 150.24C107.79 150.11 108.11 150.02 108.48 149.67C108.82 149.34 108.91 149.09 108.91 148.54C108.91 148.15 108.83 147.68 108.74 147.5C108.65 147.32 108.35 147.05 108.07 146.92C107.79 146.78 107.19 146.68 106.7 146.69C106.22 146.7 105.53 146.76 105.16 146.82ZM94.92 147C94.73 147.11 94.67 147.47 94.67 148.36C94.67 149.09 94.75 149.64 94.88 149.78C95.02 149.93 95.52 150 96.38 150C97.09 150 97.85 149.9 98.08 149.79C98.3 149.68 98.59 149.4 98.72 149.17C98.88 148.89 98.93 148.54 98.85 148.13C98.78 147.67 98.63 147.44 98.29 147.27C98.04 147.15 97.23 147 96.5 146.94C95.74 146.88 95.06 146.91 94.92 147Z" />
		<path class="shp1" d="M38.73 148.71C38.69 148.83 38.68 150.86 38.69 153.24L38.72 157.55C39.75 158.15 40.18 158.32 40.34 158.33C40.5 158.33 40.67 158.22 40.72 158.08C40.76 157.95 40.8 157.23 40.8 156.5C40.8 155.4 40.85 155.14 41.09 155.02C41.3 154.91 41.71 155.03 42.55 155.44C43.19 155.75 43.81 156 43.92 156C44.04 156 44.17 155.87 44.21 155.71C44.26 155.55 44.2 155.27 44.08 155.08C43.95 154.9 43.6 154.65 43.28 154.52C42.97 154.4 42.34 154.11 41.88 153.87C41.42 153.64 40.99 153.36 40.93 153.26C40.86 153.16 40.8 152.61 40.8 152.04C40.8 151.2 40.85 150.98 41.09 150.9C41.25 150.84 41.77 150.99 42.26 151.23C42.74 151.47 43.19 151.66 43.25 151.66C43.32 151.66 43.6 151.77 43.88 151.91C44.15 152.05 44.51 152.17 44.67 152.17C44.83 152.17 45 152.05 45.04 151.92C45.09 151.78 45.07 151.55 45 151.41C44.93 151.27 43.57 150.56 41.96 149.83C40.36 149.1 38.99 148.5 38.92 148.5C38.85 148.5 38.76 148.59 38.73 148.71ZM153.62 149.43C152.89 149.75 151.99 150.14 151.62 150.29C151.25 150.44 150.79 150.66 150.58 150.78C150.21 151 150.2 151.01 150.2 155.42C150.2 159.19 150.24 159.85 150.45 159.92C150.59 159.96 150.98 159.88 151.33 159.73C151.67 159.59 152.36 159.28 152.87 159.05C153.37 158.82 154.04 158.51 154.36 158.36C154.68 158.21 155.34 157.71 155.83 157.25C156.43 156.69 156.8 156.17 156.97 155.67C157.11 155.25 157.18 154.68 157.13 154.38C157.07 154.08 156.86 153.72 156.66 153.58C156.45 153.44 155.96 153.33 155.57 153.33C155.19 153.33 154.87 153.3 154.87 153.25C154.87 153.2 155.17 152.81 155.55 152.38C155.93 151.94 156.35 151.36 156.49 151.08C156.63 150.81 156.75 150.33 156.76 150.03C156.78 149.62 156.67 149.38 156.37 149.14C156.14 148.97 155.72 148.82 155.45 148.83C155.18 148.83 154.35 149.1 153.62 149.43Z" />
		<path class="shp0" d="M153.04 151.04C152.32 151.4 152.28 151.45 152.24 152.21C152.22 152.64 152.28 153.15 152.37 153.33C152.46 153.52 152.63 153.67 152.74 153.67C152.86 153.67 153.27 153.41 153.66 153.09C154.05 152.76 154.4 152.35 154.45 152.17C154.5 151.98 154.57 151.68 154.62 151.5C154.66 151.32 154.59 151.05 154.45 150.92C154.31 150.78 154.11 150.67 153.99 150.67C153.88 150.66 153.45 150.83 153.04 151.04ZM94.95 151.13C94.8 151.22 94.72 151.69 94.7 152.62C94.68 153.55 94.74 154.05 94.89 154.2C95.04 154.35 95.59 154.41 96.8 154.38C98.33 154.35 98.54 154.31 98.88 153.97C99.16 153.68 99.26 153.39 99.26 152.83C99.26 152.28 99.16 151.99 98.88 151.7C98.6 151.43 98.18 151.28 97.33 151.17C96.69 151.08 95.94 151.01 95.67 151.01C95.39 151.01 95.07 151.06 94.95 151.13Z" />
		<path class="shp1" d="M146.88 152.29L146.31 152.56C146.37 158.54 146.32 159.29 146.11 159.79C145.97 160.14 145.73 160.56 145.57 160.73C145.42 160.9 145.01 161.18 144.67 161.35C144.32 161.52 143.76 161.67 143.42 161.67C142.99 161.68 142.69 161.57 142.46 161.32C142.16 160.99 142.12 160.7 142.08 157.86C142.06 156.15 142 154.66 141.96 154.54C141.91 154.43 141.73 154.33 141.55 154.33C141.36 154.33 140.92 154.46 140.56 154.61L139.91 154.88C139.96 161.74 139.99 162.01 140.31 162.45C140.5 162.71 140.97 163.03 141.35 163.17C141.99 163.39 142.16 163.39 143.25 163.11C143.92 162.94 144.8 162.61 145.21 162.38C145.62 162.15 146.28 161.65 146.68 161.27C147.08 160.89 147.56 160.28 147.76 159.92C148.1 159.29 148.12 159.03 148.12 155.67C148.12 152.21 148.11 152.08 147.79 152.05C147.61 152.03 147.2 152.14 146.88 152.29ZM47.17 153.17C46.65 153.41 46.36 153.69 46.11 154.21C45.91 154.6 45.72 155.33 45.68 155.83C45.62 156.53 45.71 157.07 46.05 158.08C46.29 158.82 46.64 159.6 46.82 159.83C47 160.06 47.5 160.61 47.93 161.06C48.36 161.5 49.16 162.12 49.71 162.42C50.26 162.72 51.12 163.09 51.62 163.24C52.13 163.38 52.84 163.5 53.2 163.5C53.57 163.51 54.13 163.42 54.45 163.32C54.77 163.22 55.26 162.89 55.54 162.59C55.81 162.29 56.13 161.76 56.24 161.4C56.35 161.04 56.45 160.41 56.45 160C56.45 159.59 56.35 158.88 56.21 158.42C56.08 157.96 55.78 157.25 55.56 156.83C55.34 156.42 54.71 155.68 54.18 155.19C53.64 154.7 52.75 154.08 52.21 153.81C51.66 153.55 50.79 153.22 50.29 153.08C49.79 152.95 49.04 152.84 48.62 152.84C48.21 152.84 47.56 152.99 47.17 153.17Z" />
		<path class="shp0" d="M49.1 154.51C48.95 154.6 48.64 155 48.4 155.38C48.09 155.88 47.97 156.32 47.96 156.88C47.96 157.31 48.07 158.06 48.2 158.54C48.33 159.03 48.74 159.81 49.12 160.29C49.55 160.85 50.09 161.32 50.62 161.58C51.08 161.81 51.68 162 51.96 162C52.23 162 52.62 161.92 52.83 161.83C53.04 161.73 53.39 161.37 53.62 161.03C53.88 160.65 54.05 160.11 54.09 159.58C54.13 159.13 54.06 158.41 53.95 158C53.83 157.59 53.54 156.92 53.3 156.51C53.07 156.11 52.6 155.54 52.27 155.26C51.94 154.98 51.38 154.66 51.02 154.54C50.67 154.43 50.15 154.34 49.87 154.34C49.6 154.34 49.25 154.42 49.1 154.51ZM153.04 154.78C152.9 154.83 152.65 155 152.49 155.15C152.28 155.33 152.19 155.65 152.2 156.17C152.2 156.58 152.24 157.09 152.29 157.29C152.34 157.53 152.49 157.67 152.7 157.67C152.89 157.67 153.35 157.49 153.74 157.27C154.18 157.02 154.56 156.63 154.74 156.27C154.99 155.76 155 155.6 154.82 155.21C154.65 154.83 154.5 154.74 153.95 154.72C153.58 154.7 153.17 154.73 153.04 154.78Z" />
		<path class="shp1" d="M59.31 156.97C58.66 157.18 58.31 157.42 58.01 157.84C57.79 158.16 57.53 158.68 57.44 159C57.36 159.32 57.29 159.94 57.29 160.38C57.28 160.81 57.44 161.64 57.63 162.21C57.83 162.78 58.2 163.55 58.46 163.92C58.73 164.28 59.3 164.86 59.74 165.19C60.17 165.52 60.83 165.95 61.2 166.13C61.56 166.32 62.31 166.59 62.86 166.73C63.41 166.88 64.24 167 64.69 167C65.28 167 65.8 166.87 66.44 166.54C67.1 166.21 67.49 165.87 67.83 165.33C68.23 164.69 68.3 164.4 68.32 163.25C68.34 162.07 68.29 161.79 67.82 160.83C67.52 160.2 66.97 159.43 66.5 158.99C66.06 158.56 65.23 157.98 64.65 157.69C64.08 157.4 63.09 157.05 62.45 156.92C61.81 156.78 61.04 156.67 60.74 156.68C60.44 156.68 59.8 156.82 59.31 156.97ZM132.64 157.02C132.36 157.1 132.04 157.27 131.92 157.38C131.76 157.54 131.71 158.54 131.71 161.71C131.72 163.98 131.76 165.95 131.8 166.08C131.85 166.22 132.04 166.33 132.22 166.33C132.4 166.33 133.49 166.07 134.63 165.75C135.78 165.43 136.88 165.1 137.09 165.01C137.3 164.93 137.67 164.81 137.92 164.76C138.18 164.71 138.49 164.55 138.63 164.42C138.77 164.28 138.88 164.05 138.88 163.92C138.88 163.78 138.75 163.6 138.59 163.51C138.38 163.4 137.79 163.52 136.55 163.91C135.59 164.22 134.63 164.44 134.43 164.4C134.05 164.33 134.05 164.33 134.05 160.92C134.05 158.97 133.98 157.36 133.88 157.17C133.79 156.98 133.59 156.84 133.43 156.85C133.27 156.86 132.91 156.93 132.64 157.02ZM127.81 157.99C127.53 158.06 126.71 158.26 125.99 158.44C125.22 158.62 124.27 158.99 123.71 159.33C123.19 159.65 122.45 160.29 122.08 160.75C121.7 161.21 121.26 161.96 121.11 162.42C120.94 162.9 120.83 163.71 120.84 164.33C120.85 165.15 120.96 165.63 121.29 166.29C121.62 166.95 121.92 167.28 122.52 167.62C122.95 167.87 123.61 168.12 123.98 168.17C124.34 168.22 125.09 168.2 125.64 168.12C126.19 168.05 127.13 167.84 127.72 167.66C128.32 167.47 129.12 167.17 129.51 166.99C129.94 166.79 130.26 166.52 130.32 166.29C130.38 166.09 130.38 165.82 130.32 165.71C130.27 165.59 130.11 165.5 129.97 165.5C129.83 165.5 129.4 165.66 129.01 165.86C128.62 166.05 127.97 166.31 127.56 166.44C127.14 166.56 126.43 166.66 125.98 166.67C125.49 166.67 124.9 166.54 124.56 166.36C124.19 166.17 123.84 165.78 123.6 165.32C123.35 164.82 123.22 164.29 123.22 163.67C123.22 162.99 123.35 162.51 123.68 161.84C123.94 161.35 124.44 160.69 124.81 160.39C125.18 160.09 125.81 159.75 126.22 159.64C126.64 159.53 127.69 159.36 128.56 159.26L130.14 159.08L130.14 157.92C128.72 157.87 128.08 157.92 127.81 157.99Z" />
		<path class="shp0" d="M60.54 158.71C60.24 159.01 59.91 159.55 59.8 159.92C59.7 160.28 59.62 160.77 59.62 161C59.62 161.23 59.7 161.72 59.79 162.08C59.89 162.45 60.12 163.05 60.31 163.42C60.51 163.78 60.82 164.25 61.01 164.46C61.21 164.67 61.68 164.99 62.07 165.17C62.49 165.36 63.14 165.5 63.65 165.5C64.42 165.51 64.59 165.44 65.06 164.96C65.35 164.66 65.67 164.21 65.77 163.96C65.86 163.71 65.94 163.11 65.95 162.63C65.95 162.14 65.83 161.41 65.69 161C65.54 160.59 65.15 159.92 64.81 159.51C64.47 159.11 63.88 158.64 63.49 158.47C63.1 158.3 62.4 158.17 61.93 158.17C61.19 158.17 61.01 158.24 60.54 158.71Z" />
		<path class="shp1" d="M68.87 158.85C68.69 158.94 68.56 159.16 68.58 159.34C68.59 159.52 68.74 159.73 68.9 159.81C69.06 159.88 69.86 160.08 70.69 160.25C71.51 160.41 72.28 160.63 72.4 160.73C72.56 160.87 72.62 161.88 72.65 164.74L72.69 168.57C73.97 168.95 74.29 168.96 74.56 168.84C74.93 168.67 74.94 168.62 74.98 164.96L75.02 161.25C76.18 161.27 77.04 161.31 77.68 161.35C78.75 161.41 78.85 161.39 78.89 161.08C78.91 160.9 78.88 160.66 78.81 160.54C78.74 160.43 77.93 160.22 77.02 160.09C76.1 159.95 74.57 159.72 73.6 159.57C72.64 159.42 71.44 159.21 70.94 159.08C70.44 158.96 69.84 158.82 69.61 158.77C69.38 158.73 69.05 158.76 68.87 158.85ZM80.03 160.6C79.94 160.67 79.88 162.64 79.9 165.07C79.91 168.4 79.97 169.46 80.13 169.6C80.25 169.7 80.53 169.83 80.76 169.89C80.99 169.94 82.08 170.07 83.18 170.17C84.52 170.29 85.42 170.29 85.93 170.18C86.41 170.08 86.84 169.84 87.13 169.51C87.49 169.11 87.59 168.83 87.59 168.25C87.59 167.64 87.49 167.39 87.05 166.89C86.75 166.56 86.19 166.15 85.8 165.98C85.41 165.81 85.09 165.59 85.09 165.5C85.09 165.41 85.47 165.15 85.93 164.92C86.5 164.63 86.83 164.33 87 163.96C87.2 163.52 87.2 163.3 87.04 162.77C86.93 162.4 86.63 161.95 86.34 161.74C86.07 161.53 85.54 161.29 85.18 161.19C84.81 161.1 83.76 160.94 82.85 160.84C81.93 160.73 80.95 160.61 80.68 160.56C80.4 160.52 80.11 160.53 80.03 160.6ZM109 161.18C108.7 161.34 108.68 161.56 108.71 165.76C108.73 169.1 108.79 170.19 108.95 170.26C109.06 170.31 110.13 170.27 111.32 170.17C112.51 170.06 113.94 169.92 114.5 169.86C115.06 169.8 115.64 169.64 115.8 169.5C115.95 169.36 116.08 169.12 116.07 168.96C116.07 168.8 115.92 168.59 115.73 168.5C115.52 168.39 115.09 168.39 114.53 168.49C114.05 168.58 113.13 168.7 112.49 168.76C111.58 168.85 111.28 168.82 111.16 168.65C111.07 168.51 111.02 166.99 111.04 165.04C111.06 163.05 111 161.53 110.9 161.33C110.78 161.08 110.57 161 110.03 161.01C109.64 161.01 109.18 161.09 109 161.18ZM92.48 161.63C92.37 161.71 91.35 163.67 90.21 166.01C89.06 168.35 88.18 170.35 88.23 170.47C88.3 170.62 88.57 170.67 89 170.64C89.63 170.59 89.69 170.53 90.25 169.46L90.84 168.33C94.13 168.33 95.21 168.39 95.36 168.46C95.51 168.53 95.89 169.09 96.19 169.71C96.63 170.6 96.85 170.86 97.21 170.94C97.46 170.99 97.91 170.99 98.21 170.94C98.5 170.88 98.79 170.74 98.84 170.63C98.89 170.51 98.47 169.44 97.91 168.25C97.35 167.06 96.41 165.11 95.83 163.92C95.04 162.31 94.67 161.72 94.39 161.63C94.17 161.56 93.7 161.5 93.34 161.5C92.97 161.5 92.58 161.56 92.48 161.63ZM100.34 161.75C100.09 161.99 100.06 162.48 100.07 166.1C100.08 168.84 100.14 170.29 100.27 170.54C100.47 170.92 100.47 170.92 103.31 170.79C104.88 170.71 106.4 170.62 106.7 170.58C107.02 170.53 107.31 170.36 107.41 170.17C107.5 169.98 107.52 169.71 107.45 169.56C107.34 169.32 107.07 169.3 105.08 169.42C103.23 169.52 102.8 169.51 102.66 169.32C102.57 169.19 102.46 167.42 102.41 165.33L102.33 161.58C100.86 161.5 100.54 161.56 100.34 161.75Z" />
		<path class="shp0" d="M82.41 162.17C82.24 162.28 82.19 162.6 82.23 163.37C82.26 163.94 82.32 164.47 82.36 164.54C82.4 164.61 82.75 164.67 83.14 164.67C83.59 164.68 84.01 164.56 84.3 164.34C84.68 164.06 84.75 163.89 84.72 163.39C84.69 162.96 84.56 162.7 84.26 162.49C84.03 162.33 83.58 162.16 83.25 162.11C82.92 162.07 82.54 162.1 82.41 162.17ZM92.43 164.96C92.15 165.49 91.88 166.16 91.83 166.46C91.79 166.76 91.77 167 91.8 167.01C91.82 167.01 92.42 167.05 93.13 167.09C94.23 167.16 94.44 167.13 94.58 166.88C94.69 166.66 94.57 166.25 94.12 165.29C93.71 164.43 93.41 164 93.22 164C93.05 164 92.74 164.38 92.43 164.96ZM82.26 167.33C82.26 168.37 82.32 168.69 82.51 168.75C82.65 168.8 83.17 168.83 83.68 168.83C84.48 168.83 84.63 168.78 84.93 168.38C85.12 168.12 85.27 167.82 85.27 167.71C85.26 167.59 85.05 167.27 84.8 166.98C84.55 166.69 84.08 166.35 83.76 166.23C83.44 166.1 82.97 165.99 82.72 166L82.26 166L82.26 167.33Z" />
		<path class="shp1" d="M41.3 166.54C41.3 166.75 41.42 167.37 41.56 167.92C41.7 168.47 41.9 169.22 41.99 169.58C42.09 169.95 42.25 170.46 42.36 170.72C42.46 170.98 42.73 171.29 42.96 171.4C43.19 171.52 44.35 172.18 45.54 172.87C46.73 173.56 49.1 174.87 50.79 175.78C52.48 176.7 55.33 178.17 57.12 179.04C58.9 179.92 60.96 180.92 61.7 181.26C62.43 181.59 63.59 182.12 64.28 182.41C64.97 182.71 66.73 183.46 68.19 184.07C69.66 184.68 71.12 185.29 71.44 185.41C71.76 185.54 72.36 185.76 72.77 185.92C73.18 186.07 74.46 186.54 75.6 186.96C76.75 187.37 78.58 188.01 79.68 188.37C80.78 188.73 82.77 189.35 84.09 189.74C85.42 190.14 87 190.59 87.59 190.74C88.19 190.89 89.5 191.23 90.51 191.49C91.51 191.75 93.31 192.2 94.5 192.48C95.69 192.77 96.89 193 97.17 193C97.44 193 97.93 192.92 98.25 192.83C98.57 192.75 99.69 192.48 100.75 192.24C101.8 192 103.19 191.66 103.83 191.48C104.47 191.3 105.41 191.05 105.91 190.92C106.41 190.79 107.31 190.56 107.91 190.41C108.5 190.26 109.4 190 109.91 189.84C110.41 189.68 111.68 189.27 112.74 188.94C113.79 188.6 114.91 188.24 115.23 188.14C115.55 188.04 116.53 187.7 117.4 187.39C118.27 187.07 119.69 186.55 120.56 186.23C121.43 185.9 123.27 185.19 124.64 184.63C126.02 184.08 127.44 183.49 127.81 183.33C128.17 183.17 129.26 182.68 130.22 182.25C131.18 181.83 132.34 181.31 132.8 181.12C133.26 180.92 134.98 180.1 136.63 179.29C138.28 178.48 139.82 177.72 140.05 177.59C140.28 177.47 142.11 176.47 144.13 175.37C146.14 174.27 148.69 172.85 149.79 172.21L151.79 171.05C152.5 168.49 152.76 167.39 152.83 166.96C152.93 166.31 152.91 166.16 152.7 166.16C152.56 166.16 152.08 166.32 151.62 166.52C151.16 166.72 149.51 167.33 147.96 167.87C146.4 168.41 144.71 169 144.21 169.16C143.71 169.33 142.77 169.63 142.13 169.81C141.49 170 140.33 170.34 139.55 170.56C138.77 170.78 136.97 171.27 135.55 171.64C134.13 172.01 132.48 172.39 131.89 172.48C131.29 172.58 130.69 172.69 130.55 172.74C130.42 172.79 129.22 173.05 127.89 173.32C126.56 173.59 124.24 174.01 122.73 174.26C121.22 174.5 119.19 174.8 118.23 174.93C117.27 175.06 115.58 175.24 114.48 175.33C113.39 175.43 111.18 175.62 109.57 175.75C107.97 175.89 104.64 176.07 102.16 176.16C99.41 176.25 95.73 176.25 92.67 176.16C89.92 176.08 86.74 175.93 85.59 175.83C84.45 175.74 82.72 175.59 81.76 175.5C80.8 175.42 79.49 175.3 78.85 175.25C78.21 175.2 77.12 175.08 76.43 174.99C75.75 174.9 73.95 174.63 72.44 174.4C70.93 174.17 69.13 173.87 68.44 173.74C67.75 173.61 66.48 173.35 65.61 173.16C64.74 172.97 63.47 172.7 62.78 172.58C62.09 172.45 60.67 172.12 59.62 171.86C58.56 171.59 57.1 171.2 56.37 171C55.64 170.81 54.55 170.5 53.95 170.33C53.36 170.16 52.23 169.83 51.46 169.6C50.68 169.37 49.59 169.02 49.04 168.82C48.49 168.62 46.92 168.07 45.54 167.58C44.17 167.1 42.77 166.58 42.42 166.43C42.08 166.29 41.69 166.17 41.55 166.17C41.4 166.17 41.3 166.32 41.3 166.54Z" />
	</g>
</svg>